<svg xmlns="http://www.w3.org/2000/svg"><defs><font id="Aladin" horiz-adv-x="328"><font-face font-family="Aladin" panose-1="2 0 5 6 0 0 0 2 0 4" ascent="905" descent="-321" alphabetic="0"/><glyph glyph-name="space" horiz-adv-x="180"/><glyph unicode="!" glyph-name="exclam" horiz-adv-x="240" d="m111 85 24 1q24 0 32-10t9-37-11-39-45-13T73 0 59 57t13 44l11-8q11-8 28-8ZM52 655q-1 5-1 15t16 20 39 14q38 8 61 8t23-20l-2-12q-38-158-38-445 0-32 1-41t0-13-10-8-26-6q-35 0-36 23 0 355-27 465Z"/><glyph unicode="&quot;" glyph-name="quotedbl" horiz-adv-x="274" d="m259 709 10-9 10-32-9-57-19-51-9-18q-9-15-13-15h-2q-9 0-9 7 0 68-24 123-9 19-9 21 0 15 17 24t30 9 19 0Zm-135 0 10-9 10-32-9-57-19-51-9-18q-9-15-13-15h-2q-9 0-9 7 0 64-25 123-8 19-8 21 0 15 17 24t30 9 19 0Z"/><glyph unicode="#" glyph-name="numbersign" horiz-adv-x="589" d="m242 295 112 1 1 103H242V295Zm-65-1 1 105H55q-15 0-15 21 0 43 43 43h95v89q0 43 45 43 20 0 20-15v-11l-1-31v-74l113 1v87q0 43 45 43 20 0 20-15-1-49-1-114h114q15 0 15-10v-3q0-54-40-54h-89V297h114q7 0 11-3t4-7v-3q0-54-40-54h-89v-92q0-25-12-33t-41-8q-12 0-12 14v119H242v-92q0-25-12-33t-41-8q-12 0-12 14v119H55q-15 0-15 20 0 44 43 44h94Z"/><glyph unicode="$" glyph-name="dollar" horiz-adv-x="516" d="M171 559q0-52 68-89v177q-30-9-47-31t-19-40l-2-17Zm126-272V67q33 14 51 42t19 66q0 67-70 112Zm0-303-1-38q0-15-10-24t-29-9-18 18v48q-90 0-154 44T20 143v1q0 37 11 64t29 41q33 27 60 29l11 1q28 0 51-13t23-38q0-10-9-17-17-11-26-27t-12-27l-1-11q0-73 82-88v259q-11 5-32 14t-38 17-34 19-41 31q-47 42-47 111 0 91 54 142t138 65v35q0 13 12 21t29 9 16-22v-38q74 0 125-28t51-79q0-36-20-60t-53-24q-15 0-29 6t-15 18l4 31q0 32-19 47t-44 19l1-209q2-1 6-2t23-11 39-18 49-30 46-39q41-51 41-118 0-105-58-165T297-16Z"/><glyph unicode="%" glyph-name="percent" horiz-adv-x="581" d="M482 301h-53l-53-140 53-141 53 140Zm8-316h-61l-91 37-31 135 31 139 91 41 91-41 31-134-34-141q-27-36-88-36ZM108-3q-8-19-37-19T41-11l3 8 434 706q3 14 34 14t31-9l-1-5L108-3Zm97 675h-53L99 532l53-141 53 140Zm8-316h-61l-91 37-31 135 31 139 91 41 91-41 31-134-34-141q-27-36-88-36Z"/><glyph unicode="&amp;" glyph-name="ampersand" horiz-adv-x="578" d="M258 526q2-6 6-6t8 4q45 43 45 88 0 21-11 31t-29 11-30-15-11-44 22-69Zm22-461q46 0 83 19-45 74-93 178t-51 109-5 5l-6-3q-61-58-61-159 0-64 33-106t100-43Zm-98 377q2 2 2 5t-2 7q-34 62-34 120t40 95 106 37q27 0 53-10 49-19 49-74 0-73-100-165-2-2-2-4 57-134 145-278 16 46 16 101-2 38-17 56-2 3-2 6 0 14 41 14t53-15 13-48q0-104-57-186 49-70 78-75 9-3 9-11T559 2q-48-20-74-20-41 0-59 16-7 7-23 25-63-39-137-39-102 0-168 52T31 188q0 133 141 246l10 8Z"/><glyph unicode="'" glyph-name="quotesingle" horiz-adv-x="139" d="m124 709 10-9 10-32-9-57-19-51-9-18q-9-15-13-15h-2q-9 0-9 7 0 64-25 123-8 19-8 21 0 15 17 24t30 9 19 0Z"/><glyph unicode="(" glyph-name="parenleft" horiz-adv-x="218" d="M137 428v-82l11-155 29-119q35-94 63-130l11-15q5-6 5-11 0-9-10-9l-19 6q-8 4-20 12t-45 42-56 79-45 124-20 176 19 175 46 125 54 78 47 44l19 11q17 8 25 8t8-7q0-4-6-12t-14-18-27-48-35-82-27-118Z"/><glyph unicode=")" glyph-name="parenright" horiz-adv-x="218" d="M89 264v82L78 501 49 620q-35 94-63 130l-11 15q-8 11-8 15 0 7 7 7l26-8q13-6 34-24t39-39 39-56 36-79q37-99 37-214t-19-196-46-125-55-78-47-44L-1-87q-11-6-20-6t-9 9q0 5 5 10t12 16 27 48 35 82 27 118Z"/><glyph unicode="*" glyph-name="asterisk" horiz-adv-x="237" d="M104 643q3 0 3 13t-5 35-6 22q0 14 22 14t23-12q0-2-6-26t-6-36 3-11 10 6q19 13 43 37 3 3 9 3t15-11 8-19-11-11-37-12-25-13 9-8q21-11 55-19 7-2 7-11t-6-20-13-12-10 3-12 11l-11 12q-22 20-30 20-4 0-4-10t6-34l6-25q0-14-22-14t-23 12q0 1 5 24t6 35-4 12q-9 0-51-42-3-3-9-3t-15 11-8 19 10 12q34 7 47 15t14 11l-4 5q-24 12-58 20-8 3-8 12t7 20 13 11 11-5q38-41 52-41Z"/><glyph unicode="+" glyph-name="plus" horiz-adv-x="519" d="m224 171 1 149H45q-15 0-15 20 0 44 43 44 103 0 152 1 1 58 1 149 0 45 52 45h4q2 0 5-4t4-11q0-126-1-178l183 1q7 0 11-3t4-7v-3q0-54-40-54H290q-1-56-1-157 0-41-46-41-19 0-19 15v34Z"/><glyph unicode="," glyph-name="comma" horiz-adv-x="217" d="M167 42q0-55-25-95T85-99q-7 0-7 3l2 6q23 23 28 59l1 12q0 17-14 19h-5Q67 0 59 10t-9 36 11 38 45 13 47-12 14-43Z"/><glyph unicode="-" glyph-name="hyphen" horiz-adv-x="478" d="m83 280 342 3q13 0 13-11 0-50-36-50H57q-13 0-13 20 0 38 39 38Z"/><glyph unicode="." glyph-name="period" horiz-adv-x="218" d="M115-1 91-2Q67-2 59 8t-8 37 12 40 44 12 45-11 15-38q0-65-13-65l-5 3q-7 13-34 13Z"/><glyph unicode="/" glyph-name="slash" horiz-adv-x="384" d="M-27-42q-11-21-40-21t-29 12q0 5 3 9l477 776q8 15 39 15t31-8q0-1-481-783Z"/><glyph unicode="0" glyph-name="zero" horiz-adv-x="535" d="M373 649H268L162 351 267 52l106 298Zm23-635L357-1l-94-15L162 5 93 59l-40 82-19 93-4 103 5 110 20 102 40 88 70 57 100 23 98-17 66-48 41-66 23-80q12-78 12-139t-3-102-12-84-26-78-43-61Z"/><glyph unicode="1" glyph-name="one" horiz-adv-x="272" d="m212 422 5-329q0-48-1-61-1-24-40-35t-69-12T77 0q0 8 5 54 18 144 18 315l-4 153q-6 52-55 52l-20-2q-17 0-17 11 0 25 83 81t118 56q16 0 16-20t-4-107-5-171Z"/><glyph unicode="2" glyph-name="two" horiz-adv-x="481" d="M297-10 138-1Q81-1 45-17q-7-3-12-3-13 0-13 33t19 80 46 87q57 87 99 132l19 20q55 59 88 116t34 124q0 63-49 80-11 4-31 4t-38-7-27-20q-17-25-18-46-2-36 16-48l5-4q21-9 21-27v-1q0-27-16-42t-32-18l-17-2q-30 0-50 11t-29 28q-15 30-15 60 0 85 64 133t148 48 140-43 57-120q0-104-89-183l-20-17Q211 244 169 172q-15-25-15-42 0-11 19-13t76-3q141 0 183 46 5 3 10 3 12 0 12-34t-14-72-41-55q-19-12-102-12Z"/><glyph unicode="3" glyph-name="three" horiz-adv-x="477" d="M132 355q-7 0-7 5v2q3 64 36 64h20q36 0 62 12t41 28 22 40q12 33 12 63t-9 49-23 25q-22 11-50 11t-51-21-23-56q0-15 6-30t6-18q0-15-17-22t-39-8-40 15-20 29-4 30q0 49 34 82 61 58 172 58 23 0 57-8t58-22 42-44 19-68-12-68-31-47q-38-35-67-42l-12-4q-6-4-6-7t6-5 16-3 35-15 44-32 34-55 16-92-24-102-59-68q-71-44-126-46l-24-1q-95 0-147 39T27 128q0 50 27 89t74 39q25 0 45-11t21-32q0-11-9-15-15-9-23-25t-9-29l-1-12q0-36 20-58t52-23q104 0 104 171 0 71-44 103t-115 32h-12l-23-2h-2Z"/><glyph unicode="4" glyph-name="four" horiz-adv-x="483" d="m141 287 83-2q44 0 69 1 3 82 3 144l-1 98q0 13-7 13l-12-6q-31-34-65-89t-54-94l-19-38q-4-9-4-18t7-9Zm147-104-86 1-180-2q-22 0-22 20l2 11q64 158 215 359 48 65 89 110l13 13q26 27 77 27 27 0 27-16-16-141-16-287V292q13 1 28 2l23 2h9q8 0 8-5 0-17-17-55t-35-46l-14-3q2-113 10-152 0-26-39-38t-75-12-36 16q0 2 6 40t13 142Z"/><glyph unicode="5" glyph-name="five" horiz-adv-x="483" d="m365 589-99 7q-93 0-97-25-14-66-16-117 0-10 7-10 2 0 6 2 36 19 83 19t84-14 59-38 35-48 21-55q8-48 8-80 0-106-57-176T235-17h-3q-93 0-150 36T24 128q0 35 10 61t26 38q31 25 56 27l10 1q23 0 44-10t21-32q0-8-11-16t-19-25-9-28l-2-12q0-27 9-45t23-25q23-11 39-11 35 0 58 23t33 60q13 56 13 87 0 171-96 171-59 0-95-54-5-17-43-17t-38 16v4q22 129 36 348 3 9 14 11 41 2 92 2l115-2q92 0 111 8 4 2 9 2 10 0 10-10 0-28-23-69t-52-42Z"/><glyph unicode="6" glyph-name="six" horiz-adv-x="491" d="m321 327-20 20-49 21-50-20-28-52q-11-49-11-84t6-67 27-62 51-29 48 17 28 45q17 51 17 81t-2 48-9 50ZM255-13q-58 0-100 18T89 50t-37 70q-22 68-22 151t5 138 23 113 45 101 76 69 111 27q40 0 94-18 32-11 53-40t21-72q0-28-12-47-23-37-62-37-22 0-40 14t-19 27 9 27 9 30q0 56-65 56-5 0-12-1t-28-14-35-37-27-76-13-124q1-8 6-8 1 0 5 2 12 14 47 27t73 14 70-13 49-35 30-44 17-48q7-43 7-60 0-107-55-181T255-13Z"/><glyph unicode="7" glyph-name="seven" horiz-adv-x="404" d="m135 705 152-5q52 0 85 4l11 2q17 0 17-38t-13-67Q209 316 209 74q0-47 7-60t8-14q0-18-55-18-98 0-98 37 0 138 109 346t110 224q0 8-8 10-34 2-60 2t-60-6-52-17q-38-19-48-34l-5-7q-7-12-15-12-12 0-12 18 0 150 34 157 20 5 71 5Z"/><glyph unicode="8" glyph-name="eight" horiz-adv-x="496" d="M355 186q-5 85-75 132-32 22-39 22t-16-4-21-16-24-28q-28-38-28-105 0-32 10-66 21-65 89-65 54 0 79 42t25 88Zm-45 289 11 34 11 57-7 42-19 28q-21 18-48 19t-47-9-28-26q-13-26-13-51 0-44 43-79t62-36q5 0 10 4 25 17 36 51ZM243-14q-99 0-163 49T15 175q0 43 14 80t36 61q41 44 79 60l14 7q6 2 6 6l-5 6Q53 439 53 543q0 82 60 127t145 45q36 0 72-9t59-24 40-42 18-71-26-83-66-67q-8-4-8-6t6-8q16-6 41-25t42-40 31-56 14-62-2-45-15-55-36-64-71-50-114-22Z"/><glyph unicode="9" glyph-name="nine" horiz-adv-x="498" d="m172 404 21-24 53-24 54 26q35 42 35 115 0 34-9 74-20 80-80 80-29 0-49-20t-27-52q-12-48-12-82t7-63ZM31 466q0 136 77 204 58 49 123 49t109-17 67-43 39-69q22-67 22-177 0-427-255-427-43 0-90 14-93 28-93 119t82 91q21 0 37-14t17-30-10-32-11-27q0-61 68-61h1q121 0 121 271-1 8-6 8-1 0-5-2-12-14-47-27t-71-14q-81 0-128 54T31 466Z"/><glyph unicode=":" glyph-name="colon" horiz-adv-x="217" d="M115-1 91-2Q67-2 59 8t-9 39 14 39 45 11 44-12 14-43q0-59-13-59l-5 3q-7 13-34 13Zm3 353-24-2q-24 0-34 11t-10 38 13 38 44 12 45-11 15-56-13-46l-5 3q-6 13-31 13Z"/><glyph unicode=";" glyph-name="semicolon" horiz-adv-x="217" d="m118 352-24-2q-24 0-34 11t-10 38 13 38 44 12 45-11 15-56-13-46l-5 3q-6 13-31 13Zm49-310q0-55-25-95T85-99q-7 0-7 3l2 6q23 23 28 59l1 12q0 17-14 19h-5Q67 0 59 10t-9 36 11 38 45 13 47-12 14-43Z"/><glyph unicode="&lt;" glyph-name="less" horiz-adv-x="421" d="M362 84q-7 0-14 8-14 16-230 150l-72 45q-16 13-16 24 0 19 19 34 165 127 315 218 7 5 13 5 14 0 14-27t-19-43q-162-99-236-160-9-6-9-12t7-11q187-112 234-151 16-9 16-30 0-50-22-50Z"/><glyph unicode="=" glyph-name="equal" horiz-adv-x="500" d="M453 310q15 0 15-10v-3q0-54-40-54H45q-15 0-15 21 0 43 43 43l380 3ZM74 466l380 3q7 0 11-3t4-7v-3q0-54-40-54H46q-15 0-15 20 0 44 43 44Z"/><glyph unicode="&gt;" glyph-name="greater" horiz-adv-x="421" d="M73 90q-7-8-14-8-12 0-17 15t-5 28q0 25 19 39 48 38 183 120l48 29q7 4 7 9 0 9-9 14-66 54-193 134l-43 26q-19 15-19 42t14 28l13-5q129-77 269-183l46-35q19-13 19-29t-16-29Q91 110 73 90Z"/><glyph unicode="?" glyph-name="question" horiz-adv-x="432" d="m182 85 24 1q24 0 32-10t9-37-11-39-45-13-47 13-14 57 13 44l11-8q11-8 28-8ZM95 668l42 17 95 17 89-15 53-36 27-46q13-34 13-71t-20-77-48-67-56-50q-68-58-68-100 0-24 14-44t14-21q0-9-20-9-9 0-31 7t-36 18-25 30-11 42 15 31q162 115 162 240 0 32-9 59-17 54-65 54t-74-38-26-93q0-38 22-65 8-9 8-12 0-11-27-11-12 0-33 7t-34 19-25 35-11 44 1 30 13 38 31 47Z"/><glyph unicode="@" glyph-name="at" horiz-adv-x="912" d="m616 300-3-163q0-72 12-102t45-31 56 26 32 66q17 69 17 132t-14 114-37 83-53 56-58 35-57 19q-39 9-73 9-156 0-245-95t-90-240 70-230 204-85l34 4q7 0 7-7 0-19-32-35t-70-17q-152 0-236 90T40 166v1q0 139 55 231 52 86 127 128 77 44 141 58 63 13 98 14l15 1q79 0 143-17t105-44 70-63 44-68 23-67q11-48 11-92t-12-97-38-99-71-74-113-28-97 30-30 95l6 148q0 4-2 6t-5 2h-2q-49-2-90-28t-41-69q0-22 12-37t28-15 29 7 15 8q17-2 17-35T447 8t-64-21-58 11-35 25-18 33q-9 25-9 45 0 86 76 137 36 25 97 40t72 20l7 8q3 16 3 41t-13 36-40 12-43-14-17-38l6-23q-1-8-13-13t-23-6l-11-1q-27 0-46 15t-19 41 17 48 46 30q53 18 107 18 35 0 71-10 71-21 75-82 1-16 1-60Z"/><glyph unicode="A" glyph-name="A" horiz-adv-x="573" d="M290 573q-79-99-114-198h160q20 0 23 1t3 5q-17 123-27 167t-20 45-25-20Zm-89-471 22 4q10 0 10-11 0-35-14-59T184 2q-34-17-58-17-46 0-69 34T34 123t38 181H14q-11 0-11 11t17 35 36 25h45q71 158 167 273 25 30 61 56t57 26 30-18q26-42 61-307 12-114 41-235t55-142q6-4 6-10 0-15-42-28t-65-13-35 5-15 12q-18 39-36 186l-6 47q-4 47-8 71l-7 5-209 1q-12-51-12-89t2-55 17-38 38-20Z"/><glyph unicode="B" glyph-name="B" horiz-adv-x="521" d="m177 450 1-125-4-173q1-4 3-4t3 2q20 28 49 28t30-12q0-38 14-58t41-21 51 36 25 96q0 20-8 48-16 56-60 75-32 13-104 13-8 0-8 11 0 56 20 58 27 0 57 14 60 28 60 115 0 94-108 94l-31-2q-18-4-20-15v-3q-11-40-11-177ZM30-14l2 11q10 18 17 146t7 240-4 179-25 98q-4 5-4 12t12 12q82 32 223 32 35 0 76-9t67-24 48-43 25-69q0-145-120-167-6-2-6-4t5-6q62-10 104-50 21-19 38-59t17-92q0-67-39-127-32-49-93-70-34-12-76-12-105 0-133 67-1 3-3 3l-4-4Q143-20 44-23q-14 0-14 9Z"/><glyph unicode="C" glyph-name="C" horiz-adv-x="506" d="M462 229q19 0 19-48t-18-86-43-59-58-34Q255-45 162 4q-47 25-72 59t-40 83q-23 72-23 151t15 148 46 131 88 101 132 38q32 0 66-10t57-26 39-48 17-75q0-46-22-83-10-17-32-30t-52-14q-46 0-65 41-8 16-8 35t13 22q14 4 26 22t12 42q0 19-10 33-19 25-55 25t-65-33-45-83q-30-100-30-184t23-135q28-63 71-84 27-13 62-13 59 0 106 53 20 21 33 50 5 9 13 9Z"/><glyph unicode="D" glyph-name="D" horiz-adv-x="525" d="M240 648q-18 0-31-6t-13-15q-12-42-12-250t-1-234q19-30 59-30 71 0 107 78t36 197-35 189-110 71ZM49-11Q34-9 34-2l3 12q25 54 25 389 0 160-8 200t-14 51l-5 10q-4 4-4 11t12 13q78 31 205 31 267 0 267-340 0-133-47-243-19-42-44-72T359 9t-90-21q-10 1-25 3T198 6t-42 34Q119-11 49-11Z"/><glyph unicode="E" glyph-name="E" horiz-adv-x="478" d="M464 124q0-70-44-104T295-14q-128 0-188 85T46 293q0 22 2 64H-8q-8 0-8 6 0 17 17 41t37 24h19q13 72 42 127t62 85 72 48q62 30 130 30t85-22q8-11 8-40t-7-30q-1 0-9 4-26 12-65 12-85 0-132-60t-64-154q76 1 206 1 10 0 10-7 0-16-16-40t-36-25H171q-1-12-1-52t14-85 54-76 103-31 106 28q5 4 9 4 8 0 8-21Z"/><glyph unicode="F" glyph-name="F" horiz-adv-x="407" d="m72 180 6 177H11q-8 0-8 6 0 18 17 41t37 24h21q-2 78-4 112-4 61-20 94l-5 10q-4 5-4 12t11 12 32 12 92 18 152 12 90-12 8-37-7-26q-1 0-7 1-16 4-49 4t-71-6-58-12l-19-7q-8-2-12-14-8-59-8-173h162q9 0 9-6 0-18-16-42t-36-24l-119 1 7-300q0-22-7-32-19-25-64-37T59-25q-8 0-8 10 0 5 1 8 12 17 20 187Z"/><glyph unicode="G" glyph-name="G" horiz-adv-x="537" d="M377 294q0 23-28 25h-71q-8 0-8 5 6 29 21 46t25 20q28 4 92 4t80 0 20-4q4-5 4-11t-3-83-4-137 4-76 4-20q0-16-28-34T401-4 276-18q-91 0-158 63-52 50-71 109T27 320q0 397 291 397 49 0 88-10t68-41 30-79q0-25-10-51-18-53-80-53-34 0-51 17t-18 49q0 12 13 15 19 11 19 37t-20 41-42 15q-48 0-81-34t-48-91q-25-100-25-204 0-170 83-226 31-22 65-22 63 0 67 23 3 31 3 96l-2 95Z"/><glyph unicode="H" glyph-name="H" horiz-adv-x="549" d="M198 443v-14h177v2q1 24 1 60t-1 64-2 47-2 33-3 21-1 14 11 14q48 32 107 32 37 0 37-13 0-1-2-11-19-95-24-263-3-168-3-180 0-155 18-215 3-8 3-13t-8-13q-37-24-96-24-38 0-43 26-3 14-3 43t3 91 6 213H198q0-228 14-320 0-24-46-39T90-18 60-9q0 6 3 15 19 42 19 338v13H23q-8 0-8 6 0 2 4 15t18 32 33 18h11q0 197-23 227l-4 6q-6 5-6 12t11 13q15 9 53 18t70 9 31-14v-3q-12-104-15-253Z"/><glyph unicode="I" glyph-name="I" horiz-adv-x="245" d="M190 443q0-310 14-406 0-24-46-39T82-18 52-9q0 6 3 15 19 42 19 338 0 280-24 311l-4 6q-6 5-6 12t11 13q15 9 53 18t70 9 31-14v-3q-12-104-15-253Z"/><glyph unicode="J" glyph-name="J" horiz-adv-x="247" d="m75 185 2 202q0 237-23 268-11 14-11 19t13 13 53 17 69 9 30-14l-2-13q-12-108-12-211t6-230 6-187q0-81-62-139T-5-145q-17 2-17 12 0 7 4 11t11 10 22 31 28 56 22 88 10 122Z"/><glyph unicode="K" glyph-name="K" horiz-adv-x="495" d="m332 645 26 28 44 36 69 7 52-13q0-5-11-11t-30-19-79-71-122-136q-2-2-2-5t5-5 16-3 36-15 48-34 40-63 23-80 6-68 15-86 30-67q5-4 5-10 0-16-44-29t-78-14-40 28q-5 30-7 143v40q0 105-30 152-26 41-47 46-16 5-17 5l-11-5q-24-28-38-54t-15-38l-2-13q0-141 12-241 2-12 2-14 0-22-46-38T66-18 36-9q0 6 3 15 10 22 14 145t5 225-4 165q-6 95-20 114-11 14-11 18 0 14 51 27t83 13 32-14l-1-13q-13-108-13-231 0-10 4-10t11 9 17 25 42 58 57 75Z"/><glyph unicode="L" glyph-name="L" horiz-adv-x="446" d="m308 1-57 1h-24L45-7Q30-7 30 3q0 3 3 14 10 23 14 146t5 224-4 165q-6 95-20 114-11 14-11 18 0 16 54 28t77 12 30-2 6-11-4-51q-10-127-10-295t8-270q0-11 19-19t47-8q98 0 98 151 0 42-4 52t-5 13q0 10 14 10 11 0 29-11t31-27 22-52 10-84Q439 1 410 1H308Z"/><glyph unicode="M" glyph-name="M" horiz-adv-x="695" d="m54 389-5 189q0 45-10 71t-10 28q0 22 67 34t103 12 39-17q63-281 106-390 5-12 10-12t10 9q67 189 118 374 4 12 20 18t55 13 79 6 39-16q0-1-3-15t-6-36-7-51q-9-69-11-158t-3-180l2-105q0-72 9-102t10-35-7-11q-31-25-94-25-40 0-45 27-3 14-3 44t6 188 6 228-8 72h-1l-3-2q-3-2-15-31t-50-148-67-220-33-111q-11-27-42-27-15 0-24 11-32 148-114 423l-28 91q-2 5-4 5-5 0-7-7-4-65-4-255t14-241q1-2 1-6 0-21-33-30T52-9 25 3q0 1 5 16 15 51 19 148t5 222Z"/><glyph unicode="N" glyph-name="N" horiz-adv-x="532" d="m409 313-1 119q0 177-12 235-2 7-2 11 0 17 34 29t54 12 20-12q0-1-2-11-23-123-23-391 0-183 21-263 4-13 4-14 0-21-46-34t-65-14q-30 0-41 14-22 28-71 157t-87 242l-38 112q-2 5-5 5-4 0-9-7-5-93-5-186t1-143 4-76 4-41 3-23 2-10q0-19-33-29T57-16 30-4q0 6 3 15t7 23q10 35 14 127t4 211-3 173q-5 88-18 118-3 3-3 8 0 16 53 31t82 15 35-1q14 1 17-16 29-105 81-247t94-217q5-5 8-5 5 0 5 82Z"/><glyph unicode="O" glyph-name="O" horiz-adv-x="562" d="M292 642q-36 0-60-26-42-46-42-116t36-85q9-3 9-13 0-30-20-50t-49-25q-9 0-9-7-1-11-1-31t2-45 9-58 20-58 36-42 61-18 68 30 42 78q22 84 22 161t-10 137-23 90-33 50-32 23-26 5Zm-182-99 4 6q10 46 32 79t45 50 51 26q37 12 65 12 67 0 115-31t74-84q46-101 46-229 0-215-100-313-49-48-108-65-37-11-71-11-125 0-184 85T20 285q0 76 13 139t27 90l13 26q4 9 13 9t13-1 7-3 4-2Z"/><glyph unicode="P" glyph-name="P" horiz-adv-x="495" d="M257 419q4 0 15-8t23-8h1q34 0 54 27t22 54l3 27q0 38-11 65t-27 41-35 21q-25 10-52 10t-45-5-19-11l-1-6q-9-135-9-241t3-184 7-118 4-46q0-25-44-40T59-18Q39-18 39-8q0 3 3 14 19 44 19 409 0 215-29 246-6 6-6 12t14 15 82 18 142 11q118 0 177-64t60-152-48-154-127-65q-25 0-50 9-50 18-50 75 0 12 8 32t23 21Z"/><glyph unicode="Q" glyph-name="Q" horiz-adv-x="562" d="M228 606q-42-46-42-116t36-85q9-3 9-13 0-30-20-50t-49-25q-9 0-9-7-1-11-1-31t2-45 9-58 20-58 36-42 55-18 57 18q-23 52-48 74l-8 7q-3 4-3 8 0 11 20 11 41 0 84-43 38 78 38 203 0 202-67 268-29 28-62 28t-57-26Zm-120-63 4 6q10 46 32 79t45 50 51 26q37 12 65 12 67 0 115-31t74-84q46-101 46-229 0-215-102-317 47-52 92-52 13 0 13-9 0-16-37-34t-79-19l-32 3q-13 2-21 9t-10 21l-7 28q-47-19-96-19-125 0-184 85T18 285q0 76 13 139t27 90l13 26q4 9 13 9t13-1 7-3 4-2Z"/><glyph unicode="R" glyph-name="R" horiz-adv-x="528" d="M364 379q-11-3-11-6t24-13 45-28 31-46q14-41 14-88t7-77 17-47q20-34 37-42l7-4q6-4 6-10 0-15-49-26t-76-12q-53 0-67 42t-15 146v55q0 87-52 111-20 9-48 9h-1q-9 0-9 17t10 36 19 18q33 0 57 12t35 31q23 38 25 65v13q0 37-12 62t-30 36q-30 16-61 16t-51-5q-28-8-28-17-9-131-9-252t3-186 7-104 4-47q0-13-7-18-41-38-129-38-15 0-15 10 0 3 3 14 10 23 14 146t5 224-4 165q-6 95-20 114-11 14-11 19t11 12q64 30 232 30 135 0 202-76 36-42 36-105 0-38-15-68t-37-46q-42-32-79-39l-15-3Z"/><glyph unicode="S" glyph-name="S" horiz-adv-x="510" d="m348 554 4 31q0 46-36 59-28 9-43 9h-1q-30 0-52-9t-32-24q-21-29-24-61 0-38 34-65t82-48 97-45 83-69 34-108q0-123-77-184T241-21 78 23 13 143v1q0 37 11 64t28 41q33 27 60 29l12 1q28 0 51-13t23-38q0-12-13-20t-22-24-11-27l-2-11q0-61 56-81 20-7 32-7 55 0 88 33t34 84q0 61-52 99-39 28-84 47t-62 27-34 19-40 31q-48 42-48 113t39 121q70 89 210 89 74 0 125-28t51-79q0-36-20-60t-53-24q-15 0-29 6t-15 18Z"/><glyph unicode="T" glyph-name="T" horiz-adv-x="399" d="m108 712 144-8q96 0 138 23 6 4 10 4t5-14-17-46q-25-49-72-49l-55 1q-8 0-10-9-7-147-7-317t14-257v-5q0-25-47-40t-90-15q-20 0-20 11 0 3 3 14 11 22 19 213t9 288l-2 109q0 6-6 7-21 4-48 4-54 0-80-22-7-5-13-5t-7 8q0 12 12 33t27 36q34 36 93 36Z"/><glyph unicode="U" glyph-name="U" horiz-adv-x="546" d="m51 174 7 281q0 65-3 107-5 75-17 94l-4 6q-5 4-5 10 0 19 50 30t84 12 34-19l-1-11q-14-99-17-234t-3-178 3-70 3-32 5-17 12-23q18-24 51-24t55 15 34 37q23 47 28 81l2 15q5 71 5 168t-1 127-3 49-3 35-3 23-1 10q0 11 11 18 17 13 52 22t64 9 28-13q0-2-5-33-22-136-22-378 0-179 24-255 4-12 4-16t-8-12q-30-23-79-23t-54 25q-5 13-6 52l-1 12q0 9-4 9l-11-7q-19-32-44-53T264-7q-33-12-64-12T137-3 90 36 64 88q-13 43-13 86Z"/><glyph unicode="V" glyph-name="V" horiz-adv-x="521" d="M135 234q-6 22-32 143T50 570t-64 96q-10 5-10 13 0 19 54 31t83 12 36-17q18-37 46-166 57-270 84-340 6-14 15-14t18 17 26 50 45 116 28 144q0 94-62 133-5 6-5 13 0 21 58 42t105 21q31 0 31-29 0-90-36-208t-86-220-93-176Q255-27 237-27q-9 0-17 14-30 43-72 197l-13 50Z"/><glyph unicode="W" glyph-name="W" horiz-adv-x="833" d="m381 380 6 26 7 49-16 84q-28 102-48 121l-6 7q-10 6-10 14 0 17 45 29t73 12 34-17q12-37 26-107t25-120 17-78 16-70q19-80 38-131 6-14 14-14t18 17 26 50 44 116 28 144q0 94-62 133-5 6-5 13t7 14q7 5 20 13t52 22 70 14 37-8 6-31q0-97-57-257T664 142 567-12q-17-15-20-15-9 0-17 14-34 57-74 223-18 78-21 88t-5 10q-5 0-9-10-35-81-78-158T274 25l-25-37q-10-14-20-14t-18 13q-27 51-66 197l-13 50q-4 14-18 76-53 237-81 296-16 33-27 43t-19 12q-11 5-11 12t8 15q12 9 53 21t69 13 33-17q20-37 47-166 57-270 84-340 5-14 14-14t16 15q9 9 35 69t36 86Z"/><glyph unicode="X" glyph-name="X" horiz-adv-x="592" d="m527 629-23-30-78-113-55-99 2-7Q494 100 583 54q11-4 11-12 0-18-55-38-32-11-57-11t-36 5-22 18-19 26-22 42-24 51-30 67-35 78q-3 5-7 5t-8-6Q202 149 162 34q-5-22-44-37T35-19-9-6q0 5 6 10t15 13 33 37 53 67q71 99 143 246 3 6 3 10l-2 7q-78 191-140 256-15 15-28 19-10 6-10 15 0 18 51 31t79 14 40-18 23-49 27-66q35-89 41-100t9-11 7 5q61 109 103 202 7 19 39 26t73 7 40-11q0-6-6-11t-13-11-28-29Z"/><glyph unicode="Y" glyph-name="Y" horiz-adv-x="529" d="m390 650-4 37q0 18 46 25t90 8 44-15q0-7-10-17-39-41-94-134t-92-166l-36-72q-18-38-18-83t3-90 6-76 3-36q0-25-46-40t-75-16-30 11l3 13q17 91 17 216 0 31-10 77l-3 13Q120 478 64 560q-48 73-70 86l-9 6q-10 6-10 14 0 17 52 35t78 18 36-16q90-188 140-304 3-6 8-6t13 12 23 38 40 92 25 115Z"/><glyph unicode="Z" glyph-name="Z" horiz-adv-x="541" d="m338 702 156 6q17 0 17-18 0-34-160-299T191 88q0-28 80-28 58 0 104 21t46 69q0 29-22 44t-51 15q-15 0-15 16 0 33 32 58t71 25q18 0 38-11 41-22 41-93 0-108-55-194-11-17-21-17h-4q-67 4-144 4L91-8 16-6Q-2-4-2 8t19 55 104 185 109 184q54 98 84 166l11 23q2 6 2 8 0 11-43 11t-78-12-59-29q-47-35-65-64l-8-12q-9-17-16-19h-3q-6 0-10 3t-5 9q0 103 18 164 2 8 12 15t35 9 79 1l154-3Z"/><glyph unicode="[" glyph-name="bracketleft" horiz-adv-x="187" d="m52 345-2 347q0 13 12 30 13 16 57 38t56 22 12-4-4-9q-42-48-42-81-5-174-5-365l1-153 3-140V3q0-13 11-33t21-34l11-13q4-4 4-7 0-6-8-6t-37 11-60 33T50 2q2 222 2 343Z"/><glyph unicode="\" glyph-name="backslash" horiz-adv-x="584" d="M473-63q-12 0-22 5t-17 16Q-47 740-47 741q0 8 21 8 38 0 46-11L500-42q3-4 3-9 0-12-30-12Z"/><glyph unicode="]" glyph-name="bracketright" horiz-adv-x="185" d="m132 692-2-347 2-343q0-25-31-47T40-79 3-90t-8 6q0 3 4 7Q41-28 41 5l5 249v69q0 191-5 365 0 29-31 68l-11 13q-4 4-4 8t12 5 56-22 57-38q12-17 12-30Z"/><glyph unicode="^" glyph-name="asciicircum" horiz-adv-x="301" d="M261 205q0-9-8-9t-102 63q-93-63-102-63t-9 8l2 8q33 63 69 102 4 5 13 5t27-14q17 14 28 14l12-5q30-30 59-84l10-18q1-3 1-7Z"/><glyph unicode="_" glyph-name="underscore" horiz-adv-x="478" d="m83-11 342 3q13 0 13-11 0-50-36-50H57q-13 0-13 19 0 39 39 39Z"/><glyph unicode="`" glyph-name="grave" horiz-adv-x="418" d="m264 522-2-3-7-4-51 29-60 40-14 21 19 25 29 15 12-5q15-14 44-60t30-52Z"/><glyph unicode="a" glyph-name="a" horiz-adv-x="395" d="m364 300-2-128q0-133 29-160 4-4 4-9 0-15-64-15t-69 38q-1 9-1 37l4 160q0 7-8 7-48 0-90-27t-42-69q0-22 12-37t29-15 29 7 14 8q17-2 17-35T195 8t-65-21T72-1 36 26 18 60q-7 23-7 40 0 70 44 112t113 60q91 18 95 33 3 11 3 37 0 53-54 53-23 0-41-14t-18-37l6-24q-2-17-36-20l-11-1q-30 0-47 15t-18 40q0 16 10 35t27 32 49 21 65 10 48-2 46-9 49-29 21-44 2-68Z"/><glyph unicode="b" glyph-name="b" horiz-adv-x="419" d="m232 345-23-6q-18 0-18 33t24 54 63 21q21 0 45-12t40-31 28-58 13-93q0-122-65-198T149-21q-36 0-71 7l-10 2Q55-8 53 2q-3 21-3 99l6 324q0 75-4 115l-2 14q-2 28-11 48t-19 26l-8 5q-7 4-7 9 0 15 50 35t73 21 24-12q7-61 7-174l-5-240q0-157 9-217 1-14 31-14t53 17 33 45q20 51 20 113 0 29-8 63-14 66-60 66Z"/><glyph unicode="c" glyph-name="c" horiz-adv-x="380" d="M357 115q0-57-45-94T203-17q-92 0-135 55T25 189q0 101 45 179 22 40 63 63t96 23q83 0 117-56 14-23 14-54 0-48-40-72-16-9-29-9t-22 1-23 14-14 33q1 11 17 18 15 9 15 32 0 39-48 39-12 0-28-10t-28-27-20-52-10-68 2-49 11-45 32-47 59-18q42 0 74 35 13 14 21 34 4 8 10 8 9 0 13-16t5-30Z"/><glyph unicode="d" glyph-name="d" horiz-adv-x="412" d="M230 449q18 0 32-4t16-5l6 5-4 109q-2 28-12 48t-18 26l-9 5q-6 4-6 9 0 15 46 35t73 20 28-11q5-34 5-129t-4-188-5-208 15-147q4-7 4-13 0-15-43-15-82 0-82 39-2 16-2 49t6 125 7 141-49 50-76-58-26-116q0-123 62-123 9 0 17 3t11 4q8 0 12-10t5-20q0-34-27-57t-66-24q-60 0-90 52T25 172q0 99 47 184 24 42 65 67t93 26Z"/><glyph unicode="e" glyph-name="e" horiz-adv-x="368" d="m125 254 1-25q0-6 8-6 32 3 56 16t36 31q24 37 26 64l1 12q0 54-43 54-32 0-52-28-33-44-33-118Zm218-133q0-38-15-66t-35-42-46-22q-33-10-63-10-84 0-124 63T20 204t49 174 149 76q90 0 122-63 13-24 13-45t-2-34-14-38-32-45-63-38-101-24q-8 0-8-7 0-9 6-26t15-30q22-28 65-28t73 28q16 15 26 37 4 8 10 8t11-11 4-17Z"/><glyph unicode="f" glyph-name="f" horiz-adv-x="222" d="m160 250 5-200q0-63-16-111t-41-73q-49-51-86-58l-17-4q-15 0-15 9l5 15Q68-71 68 324q0 36-1 54-21 0-42-3h-1q-11 0-11 11l3 38q1 9 14 9h36v67l2 95q0 7 2 15t22 26 56 32 63 15 27-16q0-6-9-10-29-9-47-51t-19-145v-28q51 2 67 5 7 0 7-12t-10-29-26-18-39 0q-2-76-2-129Z"/><glyph unicode="g" glyph-name="g" horiz-adv-x="399" d="m118 426 36 15 69 16 67-15q4 0 6 2 26 26 76 26 12 0 12-11 0-1-2-9t-5-23-5-38q-7-57-7-126t-1-138l3-210q0-101-52-168-21-27-63-47t-100-20q-13 8-13 16t11 13q63 29 90 137t27 330l-2 140-3 68q0 9-28 13-36 0-60-23t-34-62q-16-61-16-105t14-79 51-34q10 0 18 4t12 4q10 0 10-20t-3-32-12-28q-20-33-78-33T53 31q-26 43-30 77-6 51-6 67t0 25 5 38 12 54 24 57 38 54Z"/><glyph unicode="h" glyph-name="h" horiz-adv-x="412" d="m159 537-1-97q0-6 4-6t8 3q25 17 79 17 91 0 126-62 13-23 13-61t-4-105-5-95q0-98 28-130 5-5 5-10 0-10-43-10-116 0-116 108 0 42 20 118t20 112-17 55-47 20-47-13-22-27l-3-13q-1-19-1-121t5-132 5-35q0-29-39-51T50-21Q36-21 36-5l2 19q22 168 22 364 0 76-6 154l-1 22q-2 28-11 48t-18 26l-9 5q-7 4-7 9 0 14 47 34t72 21 28-11q4-51 4-149Z"/><glyph unicode="i" glyph-name="i" horiz-adv-x="210" d="m133 535-24 1q-27 0-35-13-2-3-5-3-13 0-13 44t13 57 47 12 46-11 12-39-9-37-32-11ZM53 30l11 233q0 83-19 113-6 10-14 15-6 2-6 8 0 18 51 35t74 17 25-12q0-20-5-113t-6-197T176 1q3-5 3-10 0-13-38-13T63-2Q53 3 53 30Z"/><glyph unicode="j" glyph-name="j" horiz-adv-x="209" d="m136 535-24 1q-27 0-35-13-2-3-5-3-13 0-13 44t13 57 48 12 45-11 12-39-9-37-32-11Zm43-95q-9-81-9-190-4-147-4-253l1-79q0-52-15-96t-37-73-65-49-102-21q-18 0-18 13 0 7 16 14 70 33 99 148t30 280q0 232-36 254-10 7-10 12 0 17 52 34t75 17 23-11Z"/><glyph unicode="k" glyph-name="k" horiz-adv-x="395" d="M246 324q-4-4-4-8t18-9 41-22 33-39q21-41 23-72l1-13q5-117 43-160 5-7 5-10 0-11-28-11-84 0-107 35-12 14-12 87v25q0 93-23 129-12 17-29 17t-37-30-19-52q0-84 4-117t4-34q0-29-39-45T45-21Q32-21 32-5v4q24 123 24 388 0 87-4 147l-2 20q-2 28-11 48t-19 26l-8 5q-7 4-7 9 0 16 48 36t83 20q16-1 17-12 5-40 5-164t-6-199q0-12 4-12t12 11 30 37 58 58 59 33 45-11 22-21l-11-7q-57-21-125-87Z"/><glyph unicode="l" glyph-name="l" horiz-adv-x="203" d="m165 572-6-367q0-172 11-206 3-6 3-12 0-12-29-12T80-11 44 27q20 140 20 374l-4 153q-2 28-11 48t-19 26l-8 5q-7 4-7 9 0 14 43 34t85 21q16 0 18-11 4-26 4-114Z"/><glyph unicode="m" glyph-name="m" horiz-adv-x="617" d="M256-6q14 70 14 196t-1 150-14 37-22 16-27 2-33-15-19-32l-4-16q-3-30-3-133t4-129 5-36-8-18q-34-36-96-36-22 0-22 13 20 120 20 306 0 69-3 93l-4 32q-1 11-4 24 0 12 31 12 46 0 61-34 1-4 4-4t14 8q33 26 89 26 32 0 63-12t43-32q1-2 3-2t6 4q42 42 109 42 89 0 122-64 12-25 12-63t-6-108-6-107 7-67 15-43 8-15q0-13-28-13-69 0-96 28t-27 73 18 123 19 117q0 79-64 79-27 0-43-16t-19-32l-2-16q-4-46-4-111t2-101 4-57 2-25q0-28-35-43t-68-15q-17 0-17 14Z"/><glyph unicode="n" glyph-name="n" horiz-adv-x="399" d="M30-7q18 108 18 259t-9 196q0 13 30 13 46 0 61-35 1-3 5-3t6 2q31 32 96 32t103-33 38-96q0-38-6-108t-7-104q0-81 27-117 4-5 4-10 0-13-28-13-124 0-124 110 0 42 19 117t19 114q0 80-66 80-32 0-48-19t-19-43-2-93q0-104 7-181l2-22q0-28-36-43T57-20 30-7Z"/><glyph unicode="o" glyph-name="o" horiz-adv-x="420" d="M128 377q-26-1-37-1t-12 5 6 12q64 59 216 59 52 0 82-9l10-3q12-5 12-11 0-5-7-8-27-8-52-25t-25-25l6-7q32-18 49-57t20-69l2-31q0-99-55-163T193-20q-48 0-83 17T59 35 32 84q-12 37-12 76t13 80 31 59 40 31q28 15 45 15t17-7l-6-10q-22-26-31-68t-10-74 8-65 18-47 23-24q19-12 40-12t41 16 29 44q18 50 18 103 0 84-42 130t-126 46Z"/><glyph unicode="p" glyph-name="p" horiz-adv-x="408" d="M40 153q2 101 2 166t-9 124q0 10 20 10t34-5 21-11q16-16 18-16t16 9q39 25 86 25t83-24 51-63q27-67 27-142 0-74-27-148-15-40-44-65t-68-26q-77 0-77 89 0 24 10 24 2 0 11-4t19-5q71 0 71 150t-76 151q-21 0-35-9t-19-19l-4-10q-14-90-14-347 0-116 4-166t5-61-6-18q-20-26-54-46t-60-21q-10 0-10 13 16 101 25 445Z"/><glyph unicode="q" glyph-name="q" horiz-adv-x="429" d="m267-202 6 112q0 6-5 6-15 0-29 9t-15 22l4 8q20 12 32 30t14 31l1 12q8 205 8 214 0 118-13 140-7 13-34 13t-51-20-33-54q-20-61-20-113 0-117 65-117 10 0 19 4t12 5q10 0 10-31t-22-57-65-26T83 6 46 58q-21 58-21 124 0 107 55 188t153 82q40 0 60-16 7-5 10-5t5 2q32 28 72 28 16 0 16-10 0-3-5-35-16-104-16-293 0-5 8-6t24-9 16-18q0-4-5-7-44-28-44-102 0-191 21-262 3-6 3-11 0-8-15-8t-42 8-50 32-24 58Z"/><glyph unicode="r" glyph-name="r" horiz-adv-x="355" d="m335 268 4-35q0-19-36-19-73 0-73 55 0 13 7 36t7 40-10 29-29 13-32-13-17-28l-4-14q-6-31-6-103t2-114 4-57 2-19q0-25-31-40T61-17 30-4l5 31q14 87 14 227T39 444q0 12 21 12 54 0 72-37 1-4 3-4t14 9q33 27 78 27 28 0 56-11 57-23 57-96l-5-76Z"/><glyph unicode="s" glyph-name="s" horiz-adv-x="344" d="M334 137q0-43-16-75t-38-47-50-24q-38-12-69-12Q96-21 53 4T10 86q0 33 18 54 28 31 67 31 12 0 12-11 0-1-4-15t-5-37 17-39 43-17 40 8 21 22q9 18 9 34 0 29-29 50t-64 33-64 40-29 70q0 72 45 108t124 36q34 0 71-9t38-32-7-42-19-19q-6 0-8 4t-7 11-24 15-32 10-18 0-16-3-20-8q-23-13-23-38 0-16 7-23t11-12 14-9 14-8 18-8 18-9q106-50 106-136Z"/><glyph unicode="t" glyph-name="t" horiz-adv-x="224" d="m15 390 3 40q1 9 14 9h35l-4 80v4q0 23 35 44t64 21q9 0 9-8v-1q-4-27-8-139 44 0 56 2t13 2q7 0 7-12t-11-30-24-20h-42q-1-34-1-114t1-133 4-78 4-43 4-23 2-9q0-10-13-11-39 0-77 11T47 20q21 168 21 361-27 0-41-2h-1q-9 0-11 11Z"/><glyph unicode="u" glyph-name="u" horiz-adv-x="402" d="M384 445q-18-108-18-275 0-123 10-162l4-13q0-13-22-13-77 0-88 43-1 5-4 5t-7-4q-31-41-96-41-36 0-75 18-24 11-39 38t-15 68l15 219q0 69-14 98-5 11-5 14 0 6 5 8 16 5 41 5 97 0 97-80 0-25-20-114t-21-126 16-58 46-20 47 21 20 42l3 21q4 35 4 123t-5 111-6 30q0 25 40 39t72 15q15 0 15-12Z"/><glyph unicode="v" glyph-name="v" horiz-adv-x="387" d="M298 453h42l42-87q0-64-23-130t-59-116Q228 15 170-20q-14-8-21-8t-14 15-23 66-26 91l-9 41q-20 88-39 140t-28 61l-10 9q-10 5-10 12l5 9q13 12 43 24t68 13q17 0 21-19 15-46 26-108t29-140 31-79q6 0 13 9t18 24 26 58 16 73-2 47-18 39-34 25-19 13q0 16 42 37Z"/><glyph unicode="w" glyph-name="w" horiz-adv-x="612" d="M399-20q-10-7-15-7-11 0-15 9-30 60-50 162-1 4-3 4l-6-4q-27-48-62-89T190-3l-22-17q-10-9-16-9-11 0-15 10-22 42-51 163l-9 41q-19 88-38 141T9 388l-10 9q-9 3-9 10 0 14 41 30t65 16 30-18 24-104q42-224 61-224 6 0 13 10t18 26 29 52 18 65q0 5-7 36t-20 61-22 34q-18 10-18 17 0 12 41 28t74 17q15 0 21-18 15-47 36-169 27-156 50-156 8 0 24 22t31 66 16 73-2 47-18 39-34 25-19 13q0 14 41 36t86 22q42 0 42-84 0-105-62-216T399-20Z"/><glyph unicode="x" glyph-name="x" horiz-adv-x="412" d="m20 98 20-3q59 0 118 101 3 5 8 12-44 81-76 129t-44 55l-10 8q-14 6-14 15 0 13 36 28t69 17q17 1 32-25 28-41 68-125v-2q47 80 60 113 0 15 25 23t62 8 37-12q0-5-9-11-6-3-17-12t-49-52-75-107q-2-3-3-6 58-105 69-120t17-26 26-29 37-24 18-14q0-14-36-33t-67-20q-22 0-34 15-21 25-92 149-62-103-74-119T92 1 53-12 18 2 2 30L0 44q0 54 20 54Z"/><glyph unicode="y" glyph-name="y" horiz-adv-x="389" d="M207-277q0-12-12-12h-1q-33 0-74 23t-42 53 38 104T154-9q0 27-26 97-33 91-52 148T34 336 1 388l-10 7q-11 6-11 13 0 14 43 28t77 15q15 0 25-24 18-47 39-130 51-170 64-170 9 0 36 70t28 113q0 75-44 88-10 2-10 10 0 18 47 34t85 17q33 0 33-43 0-33-14-77t-26-69-59-118-79-163q-34-84-34-171 0-46 8-69t8-26Z"/><glyph unicode="z" glyph-name="z" horiz-adv-x="381" d="m253 440 109 3q13 0 13-11 0-20-63-118T203 143t-47-88q0-10 28-10t49 8 31 23q17 24 17 44t-4 39q0 12 22 14 52 0 69-29 13-23 13-47 0-54-44-81T233-11L119-8 18-10Q0-10 0 2t32 66 66 100l33 47q84 132 89 142t6 19q0 14-29 14t-52-8-39-19-26-24q-20-22-20-28-3-10-11-10h-1q-14 0-14 17 0 39 18 92l7 18q4 14 21 14l173-2Z"/><glyph unicode="{" glyph-name="braceleft" horiz-adv-x="195" d="m155 574 2-111q0-49-34-79-5-5-17-15-20-18-20-22l4-8q2-2 14-12t17-14 13-15 12-19q11-24 11-49l-2-111 3-114q0-15 10-35t22-34l10-13q4-4 4-7 0-6-12-6t-55 22-56 37T67 2q3 78 3 153t-3 102-13 40-27 29-18 20l3 7q4 4 14 13t13 12 9 11 9 12 5 12q8 19 8 125l-3 153q0 50 120 90 3 1 10 1t7-4-4-9q-42-48-42-81-3-40-3-114Z"/><glyph unicode="|" glyph-name="bar" horiz-adv-x="177" d="m128 732-2-756q0-41-46-41-19 0-19 15v68l2 568v116q0 45 52 45h3q3 0 6-4t4-11Z"/><glyph unicode="}" glyph-name="braceright" horiz-adv-x="195" d="m40 119-2 111q0 51 36 82 4 4 16 14t16 14 3 6-4 8-16 15-17 14-13 14-11 19q-10 23-10 47l2 111-3 114q0 29-31 68l-11 13q-4 4-4 8t10 5l7-1q120-40 120-90-3-78-3-153t2-96 6-29 5-12 8-12 10-10 13-13q17-15 17-19t-3-7q-32-31-41-43t-13-39-4-103l3-153q0-17-13-32T58-68 3-90t-12 6q0 3 4 7Q37-28 37 5q3 40 3 114Z"/><glyph unicode="~" glyph-name="asciitilde" horiz-adv-x="320" d="m124 287 101-8q20 0 29 3t10 3q6 0 6-5 0-15-19-33t-38-18-47 7-48 7-32-3-22-6-11-3-3 8 22 28 52 20Z"/><glyph glyph-name="nbsp" horiz-adv-x="180"/><glyph unicode="¡" glyph-name="exclamdown" horiz-adv-x="240" d="m130 392-24-1q-24 0-32 10t-9 37 11 39 45 13 47-13 14-57-13-44l-11 8q-11 8-28 8Zm59-570q1-5 1-15t-16-20-40-15q-37-7-60-7t-23 20l2 12Q91-45 91 242q0 32-1 41t0 13 10 8 26 6q35 0 36-23 0-355 27-465Z"/><glyph unicode="¢" glyph-name="cent" horiz-adv-x="395" d="M362 115q0-57-45-94T208-17q-92 0-135 55T30 189q0 101 44 179 23 40 64 63t96 23q83 0 117-56 14-23 14-54 0-48-41-72-15-9-28-9t-22 1-23 14-14 33q1 11 17 18 15 9 15 32 0 39-48 39-12 0-28-10t-28-27-20-52-10-68 2-49 11-45 32-47 59-18q41 0 74 35 13 14 21 34 4 8 10 8 9 0 13-16t5-30ZM242 495l1-60q0-22-29-22-14 0-14 14v64q0 9 9 15t21 6 12-17Zm0-303V-46q0-10-9-17t-21-8-12 15v239q0 10 9 16t21 6 12-13Z"/><glyph unicode="£" glyph-name="sterling" horiz-adv-x="499" d="m360 1-56 1h-24L98-7Q83-7 83 3q0 3 3 14 10 23 14 143t5 194H-15q-6 0-6 12t13 28 36 16h77q-4 189-12 219t-15 40-8 15q0 16 54 28t77 12 30-2 6-11-3-45q-9-111-11-254 38 1 149 1 7 0 11-3t4-7v-3q0-16-15-31t-38-15H223q0-161 8-259 0-11 19-19t47-8q98 0 98 136 0 37-4 49t-5 16q0 10 14 10 12 0 30-9t30-24 22-48 10-78Q492 1 463 1H360Z"/><glyph unicode="¥" glyph-name="yen" horiz-adv-x="529" d="m183-14 3 13q17 91 17 226 0 18-1 28H85q-15 0-15 15t10 27 33 12h82l-5 38-12 31H85q-15 0-15 15t10 27 33 12h42q-54 125-99 174-39 43-58 46l-7 2q-10 6-10 14 0 17 52 35t78 18 36-16q88-156 138-271h21q21 25 55 105t35 113l-4 37q0 18 46 25t90 8 44-15q0-7-10-17-64-67-177-255h78q7 0 11-3t4-7v-3q0-44-40-44h-87l-11-20q-7-14-12-47 33 1 125 1 15 0 15-10v-3q0-19-11-31t-29-13H322v-16q0-67 6-134t6-72q0-25-46-40t-75-16-30 11Z"/><glyph unicode="¦" glyph-name="brokenbar" horiz-adv-x="177" d="m128 273-2-290q0-41-46-41-19 0-19 15v20l2 197v69q0 45 52 45h3q3 0 6-4t4-11Zm0 459-2-290q0-41-46-41-19 0-19 15v20l2 198v68q0 45 52 45h3q3 0 6-4t4-11Z"/><glyph unicode="§" glyph-name="section" horiz-adv-x="467" d="M348 370q0 20-27 39t-54 29l-27 10q-3 1-9 1l-13-3q-10-4-25-11t-42-32-26-48v-1q0-21 26-41t53-29l26-9q4-2 11-2t13 3q94 53 94 94ZM306 13 254 1 150-12 82-8Q57-2 54 35l-1 12q0 9 7 9 4 0 27-5t53-6 60 6 46 14 25 20q14 17 14 34t-27 36-67 35-79 36-67 46-28 55 14 50 35 40q37 31 76 50l14 7q4 3 4 5l-4 5q-40 18-61 37t-22 53 25 63 66 43q80 31 171 31 66 0 66-54 0-10-7-10-3 0-13 3t-42 4-54-2-48-8-43-20-16-34q0-32 115-66 95-29 124-53 33-28 33-69 0-24-18-53-34-57-126-103-6-3-6-5t5-6q90-40 90-102 0-32-18-59t-45-44Z"/><glyph unicode="¨" glyph-name="dieresis" horiz-adv-x="410" d="m305 538-21-1q-19 0-26 8t-7 32 10 32 37 9 37-10 11-31q0-35-4-43t-6-9l-4 3q-6 10-27 10Zm-175 0-21-1q-19 0-26 8t-7 32 10 32 37 9 37-10 11-31q0-52-10-52l-4 3q-6 10-27 10Z"/><glyph unicode="©" glyph-name="copyright" horiz-adv-x="522" d="m332 146-5-3q-8-17-21-26t-31-12q-48 0-57 64-1 11-1 34t13 62 40 38q10 0 16-6 8-8 8-16 0-16-14-24-5-1-5-10t7-17q9-9 23-9t24 11 11 24l1 12q0 26-16 41t-28 17-22 2q-54 0-79-46t-26-108q0-38 12-67 21-53 79-53 34 0 56 23t22 46-7 23Zm2 224h-73l-125-51-52-125 52-125 125-52 124 52 52 125-51 124Zm19 44 64-64 65-156-65-156-156-65-156 64-65 156 64 156 157 65Z"/><glyph unicode="ª" glyph-name="ordfeminine" horiz-adv-x="321" d="m282 564-2-103q0-93 20-112 3-3 3-6 0-11-45-11t-48 27q-1 6-1 26l3 112q0 5-5 5-34 0-63-19t-30-48q0-15 8-26t21-11 21 5 9 6q12-2 12-25t-21-37-46-15-41 8-25 19-12 25q-6 16-6 27 0 93 110 120 64 13 67 23 2 8 2 26 0 37-38 37-16 0-28-10t-13-25l4-17q-2-13-28-14t-38 10-12 22 1 16 7 16 17 21q28 21 87 21t84-21 26-72Z"/><glyph unicode="«" glyph-name="guillemotleft" horiz-adv-x="690" d="m370 149-72 45q-16 13-16 24 0 18 18 34 156 120 306 211 7 5 13 5 14 0 14-28t-19-41q-152-94-227-154-9-7-9-13t7-11Q576 109 623 70q16-10 16-37 0-45-21-45-6 0-17 12T370 149Zm12-168q-7 0-14 9-14 15-230 150l-72 44q-16 13-16 24 0 17 19 34 165 127 315 218 7 5 13 5 14 0 14-27t-19-43q-162-99-236-160-9-6-9-12t7-11Q341 100 388 61q16-9 16-29 0-51-22-51Z"/><glyph unicode="¬" glyph-name="logicalnot" horiz-adv-x="499" d="m73 384 374 3q20 0 20-22V217q0-41-46-41-19 0-19 15v2q0 64 1 127H45q-15 0-15 20 0 44 43 44Z"/><glyph unicode="®" glyph-name="registered" horiz-adv-x="522" d="m238 90-4 100q0 61 3 106 0 8 17 8t24-2 14-11 8-21-1-18-11-18-29-12q-3 0-6-6t-4-13 3-6h1q35 0 35-42v-19q0-36 5-51t18-15 31 4 18 9l-2 4q-24 9-24 57t-35 60q-5 2-5 3l13 4q13 4 28 18t14 40-24 42-70 16-70-10q-4-3-4-5l2-4q7-6 8-29t2-75-1-62l-5-63q-1-2-1-5t5-3q32 0 45 13 2 1 2 6Zm96 280h-73l-125-51-52-125 52-125 125-52 124 52 52 125-51 124Zm19 44 64-64 65-156-65-156-156-65-156 64-65 156 64 156 157 65Z"/><glyph unicode="¯" glyph-name="overscore" horiz-adv-x="395" d="M108 528q0 30 28 30l189 2q9 0 9-9 0-36-26-36H117q-9 0-9 13Z"/><glyph unicode="°" glyph-name="degree" horiz-adv-x="255" d="m157 536 13 12 14 36-13 37-32 14-32-14-14-37 13-35 32-13Zm-57-43-28 23-28 67 30 69 68 26 64-23 26-68-28-69-66-25Z"/><glyph unicode="±" glyph-name="plusminus" horiz-adv-x="499" d="M453 186q15 0 15-10v-3q0-54-40-54H45q-15 0-15 21 0 43 43 43l380 3Zm-235 58 1 118H45q-15 0-15 20 0 44 43 44 97 0 146 1 1 58 1 107 0 45 52 45h4q2 0 5-4t4-11q0-84-1-136l167 1q7 0 11-3t4-7v-3q0-54-40-54H284q-1-56-1-115 0-41-46-41-19 0-19 15v23Z"/><glyph unicode="²" glyph-name="twosuperior" horiz-adv-x="306" d="m187 261-95 6q-34 0-56-10-6-2-7-2-8 0-8 26t27 75 56 80l27 30q22 24 35 42t25 46 13 54-11 38-23 14l-11 1q-24 0-37-12t-16-24l-1-12q0-17 14-27 12-6 12-16v-1q0-16-9-25t-20-11l-10-1q-56 0-56 59 0 51 39 80t88 29 84-26 34-72q0-62-53-110-127-111-127-147 0-6 11-7t46-2q85 0 110 27 3 2 6 2 7 0 7-16 0-61-33-81-11-7-61-7Z"/><glyph unicode="³" glyph-name="threesuperior" horiz-adv-x="315" d="m111 485-20-1h-3l-4 4q3 38 22 38h12q53 0 70 36 12 28 12 51t-10 35q-15 15-36 15t-34-12-14-28 4-24 4-11q0-18-30-18-42 0-42 43t38 65 85 21q66 0 95-45 11-18 11-47t-18-53-37-30l-18-7q-4-3-4-5t4-2 9-2 21-9 26-19 21-34 10-55-14-61-35-41q-42-26-76-27l-15-1q-57 0-88 24t-32 58 16 58 45 23q15 0 27-6t13-15q0-11-6-13-18-10-19-36t11-39 32-14q62 0 62 103 0 81-95 81Z"/><glyph unicode="´" glyph-name="acute" horiz-adv-x="418" d="M238 519q-5-4-10-4-8 0-8 9l2 8q27 54 72 108 4 5 12 5t29-14 20-25-9-17q-42-34-108-70Z"/><glyph unicode="¶" glyph-name="paragraph" horiz-adv-x="412" d="M252-9q0-10-8-12-44 3-44 26 15 85 15 263v31l-6 5q-55 0-96 13t-62 33-35 46q-19 38-19 82 0 108 81 173t212 66q55 0 94-7 6-3 6-9v-2q-38-168-38-429 0-159 16-241 5-29 5-32 0-10-13-14t-31-5-20 16q-5 74-5 193 0 249 28 469 0 8-22 8t-27-25q-21-105-21-334T252-9Z"/><glyph unicode="·" glyph-name="middot" horiz-adv-x="210" d="m115 204-24-1q-24 0-32 10t-8 37 12 40 44 12 45-11 15-37q0-66-13-66l-5 3q-7 13-34 13Z"/><glyph unicode="¸" glyph-name="cedilla" horiz-adv-x="380" d="M165-40q0 14 14 21t25 8 14-1q-16-11-16-19t9-11q30-10 30-30t-17-30-35-10-29 4-13 13l5 6q12-2 22-2t16 6 6 15-15 16-16 14Z"/><glyph unicode="¹" glyph-name="onesuperior" horiz-adv-x="213" d="m157 527 3-197v-37q-1-14-24-21t-42-7-18 9q0 5 4 32 10 81 10 189l-2 92q-3 31-33 31l-12-1q-11 0-11 7 0 15 50 48t71 34q10 0 10-12t-3-64-3-103Z"/><glyph unicode="º" glyph-name="ordmasculine" horiz-adv-x="306" d="M95 607q-18-1-26-1t-8 3 4 9q46 41 151 41 37 0 65-8 8-4 8-8l-5-6q-19-5-36-17t-18-18l5-4q22-12 34-39t14-49l1-22q0-70-38-114t-105-45q-33 0-58 12t-36 27-19 34q-8 26-8 53t9 56 22 41 27 21q21 11 32 11t12-5l-4-7q-11-13-18-35-11-31-11-59t5-50 13-34 17-17q12-8 22-8 37 0 52 36t15 86-30 83-88 33Z"/><glyph unicode="»" glyph-name="guillemotright" horiz-adv-x="691" d="M93-3q-7-9-14-9-21 0-21 45 0 23 18 39 42 34 187 120l49 29q7 4 7 9 0 6-9 15-63 51-187 129l-40 25q-19 12-19 40t14 29l13-5q128-76 263-179l43-32q18-13 18-29t-16-29Q110 17 93-3Zm236-8q-7-8-14-8-12 0-17 15t-5 28q0 25 19 40 48 37 183 119l48 29q7 4 7 8 0 10-9 15-66 54-193 133l-43 27q-19 15-19 42t14 28l13-5q129-77 269-184l46-34q19-13 19-29t-16-29Q347 9 329-11Z"/><glyph unicode="¼" glyph-name="onequarter" horiz-adv-x="586" d="m356 178 49-2q27 0 42 1 2 66 2 86l-1 59q0 8-4 8l-7-4q-36-38-71-109l-12-23q-3-6-3-11t5-5Zm159 3 36 2q5 0 5-6t-10-30-21-28l-9-1q2-68 6-92 0-15-24-22t-45-8-21 10q0 1 2 5 4 34 10 104l-52 1h-56l-37-1h-15q-13 0-13 12l1 6q47 115 160 255 15 18 22 26l8 8q16 17 39 17t24-10q-10-88-10-172v-76ZM94-1Q83-22 54-22T25-10q0 4 3 9l432 719q8 15 39 15t31-8q0-13-436-726Zm63 528 3-197v-37q-1-14-24-21t-42-7-18 9q0 5 4 32 10 81 10 189l-2 92q-3 31-33 31l-12-1q-11 0-11 7 0 15 50 48t71 34q10 0 10-12t-3-64-3-103Z"/><glyph unicode="½" glyph-name="onehalf" horiz-adv-x="646" d="M94-1Q83-22 54-22T25-10q0 4 3 9l432 719q8 15 39 15t31-8q0-13-436-726Zm433-1-95 6q-34 0-56-10-6-2-7-2-8 0-8 26t27 75 56 79l27 31q22 24 35 42t25 46 13 54-11 38-23 14l-11 1q-24 0-37-12t-16-24l-1-12q0-17 14-27 12-6 12-16v-1q0-16-9-25t-20-11l-10-1q-56 0-56 59 0 51 39 80t88 29 84-26 34-72q0-62-53-110Q441 118 441 82q0-6 11-7t46-2q85 0 110 27 3 2 6 2 7 0 7-16 0-61-33-81-10-7-61-7ZM157 527l3-197v-37q-1-14-24-21t-42-7-18 9q0 5 4 32 10 81 10 189l-2 92q-3 31-33 31l-12-1q-11 0-11 7 0 15 50 48t71 34q10 0 10-12t-3-64-3-103Z"/><glyph unicode="¾" glyph-name="threequarters" horiz-adv-x="687" d="m111 485-20-1h-3l-4 4q3 38 22 38h12q53 0 70 36 12 28 12 51t-10 35q-15 15-36 15t-34-12-14-28 4-24 4-11q0-18-30-18-42 0-42 43t38 65 85 21q66 0 95-45 11-18 11-47t-18-53-37-30l-18-7q-4-3-4-5t4-2 9-2 21-9 26-19 21-34 10-55-14-61-35-41q-42-26-76-27l-15-1q-57 0-88 24t-32 58 16 58 45 23q15 0 27-6t13-15q0-11-6-13-18-10-19-36t11-39 32-14q62 0 62 103 0 81-95 81Zm346-307 49-2q27 0 42 1 2 66 2 86l-1 59q0 8-4 8l-7-4q-36-38-72-109l-11-23q-3-6-3-11t5-5Zm159 3 36 2q5 0 5-6t-10-30-21-28l-9-1q2-68 6-92 0-15-24-22t-45-8-21 10q0 1 2 5 4 34 10 104l-52 1h-56l-37-1h-15q-13 0-13 12l1 6q47 115 160 255 15 18 23 26l7 8q16 17 39 17t24-10q-10-88-10-172v-76ZM195-1q-11-21-40-21t-29 12q0 4 3 9l432 719q8 15 39 15t31-8q0-13-436-726Z"/><glyph unicode="¿" glyph-name="questiondown" horiz-adv-x="407" d="m250 392-24-1q-24 0-32 10t-9 37 11 39 45 13 47-13 14-57-13-44l-11 8q-11 8-28 8Zm87-583-42-17-95-17-89 15-53 36-27 46Q18-94 18-57t20 77 48 67 56 51q68 57 68 99 0 24-14 44t-14 21q0 9 20 9 9 0 31-7t36-18 25-30 11-42-15-31Q128 68 128-57q0-32 9-59 17-54 65-54t74 38 26 93q0 38-22 65-8 9-8 12 0 11 27 11 12 0 33-7t34-19 25-35 11-44-1-30-13-38-31-47Z"/><glyph unicode="À" glyph-name="Agrave" horiz-adv-x="573" d="m414 782-2-3-7-4-51 29-60 40-14 21 19 25 29 15 12-5q15-15 44-60t30-52ZM290 573q-79-99-114-198h160q20 0 23 1t3 5q-17 123-27 167t-20 45-25-20Zm-89-471 22 4q10 0 10-11 0-35-14-59T184 2q-34-17-58-17-46 0-69 34T34 123t38 181H14q-11 0-11 11t17 35 36 25h45q71 158 167 273 25 30 61 56t57 26 30-18q26-42 61-307 12-114 41-235t55-142q6-4 6-10 0-15-42-28t-65-13-35 5-15 12q-18 39-36 186l-6 47q-4 47-8 71l-7 5-209 1q-12-51-12-89t2-55 17-38 38-20Z"/><glyph unicode="Á" glyph-name="Aacute" horiz-adv-x="573" d="M308 748q-5-4-10-4-8 0-8 9l2 8q27 54 72 108 4 5 12 5t29-14 20-25-9-17q-42-34-108-70Zm-18-175q-79-99-114-198h160q20 0 23 1t3 5q-17 123-27 167t-20 45-25-20Zm-89-471 22 4q10 0 10-11 0-35-14-59T184 2q-34-17-58-17-46 0-69 34T34 123t38 181H14q-11 0-11 11t17 35 36 25h45q71 158 167 273 25 30 61 56t57 26 30-18q26-42 61-307 12-114 41-235t55-142q6-4 6-10 0-15-42-28t-65-13-35 5-15 12q-18 39-36 186l-6 47q-4 47-8 71l-7 5-209 1q-12-51-12-89t2-55 17-38 38-20Z"/><glyph unicode="Â" glyph-name="Acircumflex" horiz-adv-x="573" d="M462 758q0-9-8-9t-102 63q-93-63-102-63t-9 8l2 8q33 63 69 102 4 5 13 5t27-14q18 14 28 14l12-5q30-30 59-83l10-19q1-3 1-7ZM290 573q-79-99-114-198h160q20 0 23 1t3 5q-17 123-27 167t-20 45-25-20Zm-89-471 22 4q10 0 10-11 0-35-14-59T184 2q-34-17-58-17-46 0-69 34T34 123t38 181H14q-11 0-11 11t17 35 36 25h45q71 158 167 273 25 30 61 56t57 26 30-18q26-42 61-307 12-114 41-235t55-142q6-4 6-10 0-15-42-28t-65-13-35 5-15 12q-18 39-36 186l-6 47q-4 47-8 71l-7 5-209 1q-12-51-12-89t2-55 17-38 38-20Z"/><glyph unicode="Ã" glyph-name="Atilde" horiz-adv-x="573" d="m307 830 101-8q20 0 29 3t10 3q6 0 6-5 0-15-19-33t-38-18-47 7-48 7-32-3-22-6-11-3-3 8 22 28 52 20Zm-17-257q-79-99-114-198h160q20 0 23 1t3 5q-17 123-27 167t-20 45-25-20Zm-89-471 22 4q10 0 10-11 0-35-14-59T184 2q-34-17-58-17-46 0-69 34T34 123t38 181H14q-11 0-11 11t17 35 36 25h45q71 158 167 273 25 30 61 56t57 26 30-18q26-42 61-307 12-114 41-235t55-142q6-4 6-10 0-15-42-28t-65-13-35 5-15 12q-18 39-36 186l-6 47q-4 47-8 71l-7 5-209 1q-12-51-12-89t2-55 17-38 38-20Z"/><glyph unicode="Ä" glyph-name="Adieresis" horiz-adv-x="573" d="m462 817-21-1q-19 0-26 8t-7 32 10 32 37 9 37-10 11-31q0-52-10-52l-4 3q-6 10-27 10Zm-175 0-21-1q-19 0-26 8t-7 32 10 32 37 9 37-10 11-31q0-35-4-43t-6-9l-4 3q-6 10-27 10Zm3-244q-79-99-114-198h160q20 0 23 1t3 5q-17 123-27 167t-20 45-25-20Zm-89-471 22 4q10 0 10-11 0-35-14-59T184 2q-34-17-58-17-46 0-69 34T34 123t38 181H14q-11 0-11 11t17 35 36 25h45q71 158 167 273 25 30 61 56t57 26 30-18q26-42 61-307 12-114 41-235t55-142q6-4 6-10 0-15-42-28t-65-13-35 5-15 12q-18 39-36 186l-6 47q-4 47-8 71l-7 5-209 1q-12-51-12-89t2-55 17-38 38-20Z"/><glyph unicode="Å" glyph-name="Aring" horiz-adv-x="573" d="M369 817q15 0 33-6 5 0 5 16 0 47-29 47-14 0-22-8t-8-20q0-29 21-29Zm-52 26q0 29 16 44t45 15 44-21 15-64-13-43q-3 0-6 2-16 14-54 14-47 0-47 53Zm-27-270q-79-99-114-198h160q20 0 23 1t3 5q-17 123-27 167t-20 45-25-20Zm-89-471 22 4q10 0 10-11 0-35-14-59T184 2q-34-17-58-17-46 0-69 34T34 123t38 181H14q-11 0-11 11t17 35 36 25h45q71 158 167 273 25 30 61 56t57 26 30-18q26-42 61-307 12-114 41-235t55-142q6-4 6-10 0-15-42-28t-65-13-35 5-15 12q-18 39-36 186l-6 47q-4 47-8 71l-7 5-209 1q-12-51-12-89t2-55 17-38 38-20Z"/><glyph unicode="Æ" glyph-name="AE" horiz-adv-x="858" d="M338 573q-79-99-114-198h160q20 0 23 1t3 5q-17 123-27 167t-20 45-25-20Zm-89-471 22 4q10 0 10-11 0-35-14-59T232 2q-34-17-58-17-46 0-69 34T82 123t38 181H62q-11 0-11 11t17 35 36 25h45q71 158 167 273 25 30 61 56t62 26q10 0 17-8 21-20 39-123 1-5 4-5t7 4q49 67 112 93t128 27 82-22q8-11 8-40t-7-30q-1 0-9 4-26 12-65 12-85 0-132-60t-64-154q57 1 206 1 10 0 10-7 0-16-16-40t-36-25H551q-1-12-1-52t14-85 54-76 103-31 106 28q5 4 9 4 8 0 8-21 0-70-44-104T675-14q-38 0-76 10-47-19-75-19-46 0-54 17-18 39-36 186l-6 47q-4 47-8 71l-7 5-209 1q-12-51-12-89t2-55 17-38 38-20Z"/><glyph unicode="Ç" glyph-name="Ccedilla" horiz-adv-x="506" d="M196-118q0 7 4 7h1q12-3 25-3t21 8 8 19-18 21-19 18 14 19l13 10q-56 5-97 31T84 73t-36 79q-21 70-21 147t15 146 46 131 88 101 132 38q32 0 66-10t57-26 39-48 17-75q0-46-22-83-10-17-32-30t-52-14q-46 0-65 41-8 16-8 35t13 22q14 4 26 22t12 42q0 19-10 33-19 25-55 25t-65-33-45-83q-30-100-30-184t23-135q28-63 71-84 27-13 62-13 59 0 106 53 20 21 33 50 5 9 13 9 19 0 19-45t-15-82-37-57-51-35q-46-24-93-29-5 0-12-9t-8-15 12-10q36-15 36-38t-22-36-43-13q-52 0-52 22Z"/><glyph unicode="È" glyph-name="Egrave" horiz-adv-x="478" d="m382 756-2-3-7-3-51 29-60 40-14 21 19 25 29 15 12-5q14-15 44-60t30-52Zm82-632q0-70-44-104T295-14q-128 0-188 85T46 293q0 22 2 64H-8q-8 0-8 6 0 17 17 41t37 24h19q13 72 42 127t62 85 72 48q62 30 130 30t85-22q8-11 8-40t-7-30q-1 0-9 4-26 12-65 12-85 0-132-60t-64-154q76 1 206 1 10 0 10-7 0-16-16-40t-36-25H171q-1-12-1-52t14-85 54-76 103-31 106 28q5 4 9 4 8 0 8-21Z"/><glyph unicode="É" glyph-name="Eacute" horiz-adv-x="478" d="M299 751q-5-4-10-4-8 0-8 9l2 8q27 54 72 108 4 5 12 5t29-14 20-25-9-17q-42-34-108-70Zm165-627q0-70-44-104T295-14q-128 0-188 85T46 293q0 22 2 64H-8q-8 0-8 6 0 17 17 41t37 24h19q13 72 42 127t62 85 72 48q62 30 130 30t85-22q8-11 8-40t-7-30q-1 0-9 4-26 12-65 12-85 0-132-60t-64-154q76 1 206 1 10 0 10-7 0-16-16-40t-36-25H171q-1-12-1-52t14-85 54-76 103-31 106 28q5 4 9 4 8 0 8-21Z"/><glyph unicode="Ê" glyph-name="Ecircumflex" horiz-adv-x="478" d="M434 754q0-9-8-9t-102 63q-93-63-102-63t-9 8l2 8q33 63 69 102 4 5 13 5t27-14q18 14 28 14l12-5q30-30 59-83l10-19q1-3 1-7Zm30-630q0-70-44-104T295-14q-128 0-188 85T46 293q0 22 2 64H-8q-8 0-8 6 0 17 17 41t37 24h19q13 72 42 127t62 85 72 48q62 30 130 30t85-22q8-11 8-40t-7-30q-1 0-9 4-26 12-65 12-85 0-132-60t-64-154q76 1 206 1 10 0 10-7 0-16-16-40t-36-25H171q-1-12-1-52t14-85 54-76 103-31 106 28q5 4 9 4 8 0 8-21Z"/><glyph unicode="Ë" glyph-name="Edieresis" horiz-adv-x="478" d="m390 764-21-1q-19 0-26 8t-7 32 10 32 37 9 37-10 11-31q0-52-10-52l-4 3q-6 10-27 10Zm-175 0-21-1q-19 0-26 8t-7 32 10 32 37 9 37-10 11-31q0-35-4-43t-6-9l-4 3q-6 10-27 10Zm249-640q0-70-44-104T295-14q-128 0-188 85T46 293q0 22 2 64H-8q-8 0-8 6 0 17 17 41t37 24h19q13 72 42 127t62 85 72 48q62 30 130 30t85-22q8-11 8-40t-7-30q-1 0-9 4-26 12-65 12-85 0-132-60t-64-154q76 1 206 1 10 0 10-7 0-16-16-40t-36-25H171q-1-12-1-52t14-85 54-76 103-31 106 28q5 4 9 4 8 0 8-21Z"/><glyph unicode="Ì" glyph-name="Igrave" horiz-adv-x="245" d="m202 762-2-3-7-3-51 29-60 40-14 21 19 25 29 15 12-5q14-15 44-60t30-52Zm-12-319q0-310 14-406 0-24-46-39T82-18 52-9q0 6 3 15 19 42 19 338 0 280-24 311l-4 6q-6 5-6 12t11 13q15 9 53 18t70 9 31-14v-3q-12-104-15-253Z"/><glyph unicode="Í" glyph-name="Iacute" horiz-adv-x="245" d="M102 740q-5-4-10-4-8 0-8 9l2 8q27 54 72 108 4 5 12 5t29-14 20-25-9-17q-42-34-108-70Zm88-297q0-310 14-406 0-24-46-39T82-18 52-9q0 6 3 15 19 42 19 338 0 280-24 311l-4 6q-6 5-6 12t11 13q15 9 53 18t70 9 31-14v-3q-12-104-15-253Z"/><glyph unicode="Î" glyph-name="Icircumflex" horiz-adv-x="245" d="M241 743q0-9-8-9t-102 63q-93-63-102-63t-9 8l2 8q33 63 69 102 4 5 13 5t27-14q17 14 28 14l12-5q30-30 59-84l10-18q1-3 1-7Zm-51-300q0-310 14-406 0-24-46-39T82-18 52-9q0 6 3 15 19 42 19 338 0 280-24 311l-4 6q-6 5-6 12t11 13q15 9 53 18t70 9 31-14v-3q-12-104-15-253Z"/><glyph unicode="Ï" glyph-name="Idieresis" horiz-adv-x="245" d="m221 756-21-1q-19 0-26 8t-7 32 10 32 37 9 37-10 11-31q0-35-4-43t-6-9l-4 3q-6 10-27 10Zm-175 0-21-1q-19 0-26 8t-7 32 10 32 37 9 37-10 11-31q0-52-10-52l-4 3q-6 10-27 10Zm144-313q0-310 14-406 0-24-46-39T82-18 52-9q0 6 3 15 19 42 19 338 0 280-24 311l-4 6q-6 5-6 12t11 13q15 9 53 18t70 9 31-14v-3q-12-104-15-253Z"/><glyph unicode="Ð" glyph-name="Eth" horiz-adv-x="525" d="m184 246-1-103q19-30 55-30t63 17 40 48 25 61 14 66q5 57 5 104t-11 96-26 75-37 43q-33 25-71 25-18 0-31-6t-13-15q-12-42-12-191v-53q23 1 95 1 13 0 13-11 0-50-36-50h-72v-77ZM19 381h43v18q0 160-8 200t-14 51l-5 10q-4 4-4 11t12 13q78 31 205 31 267 0 267-340 0-133-47-243-19-42-44-72T359 9t-90-21q-31 0-64 13t-45 34q-2 3-3 3l-4-4Q118-11 49-11 34-9 34-2l3 12q22 46 24 313H-7q-13 0-13 19 0 39 39 39Z"/><glyph unicode="Ñ" glyph-name="Ntilde" horiz-adv-x="532" d="m257 819 106-7q28 0 37 3t11 3q6 0 6-5 0-16-23-42t-45-27-56 9-53 9-32-2-23-5-12-3-3 6q0 14 30 37t57 24Zm152-506-1 119q0 177-12 235-2 7-2 11 0 17 34 29t54 12 20-12q0-1-2-11-23-123-23-391 0-183 21-263 4-13 4-14 0-21-46-34t-65-14q-30 0-41 14-22 28-71 157t-87 242l-38 112q-2 5-5 5-4 0-9-7-5-93-5-186t1-143 4-76 4-41 3-23 2-10q0-19-33-29T57-16 30-4q0 6 3 15t7 23q10 35 14 127t4 211-3 173q-5 88-18 118-3 3-3 8 0 16 53 31t82 15 35-1q14 1 17-16 29-105 81-247t94-217q5-5 8-5 5 0 5 82Z"/><glyph unicode="Ò" glyph-name="Ograve" horiz-adv-x="562" d="m350 750-2-3-7-3-51 29-60 40-14 21 19 25 29 15 12-5q14-15 44-60t30-52Zm-58-108q-36 0-60-26-42-46-42-116t36-85q9-3 9-13 0-30-20-50t-49-25q-9 0-9-7-1-11-1-31t2-45 9-58 20-58 36-42 61-18 68 30 42 78q22 84 22 161t-10 137-23 90-33 50-32 23-26 5Zm-182-99 4 6q10 46 32 79t45 50 51 26q37 12 65 12 67 0 115-31t74-84q46-101 46-229 0-215-100-313-49-48-108-65-37-11-71-11-125 0-184 85T20 285q0 76 13 139t27 90l13 26q4 9 13 9t13-1 7-3 4-2Z"/><glyph unicode="Ó" glyph-name="Oacute" horiz-adv-x="562" d="M247 735q-5-4-10-4-8 0-8 9l2 8q27 54 72 108 4 5 12 5t29-14 20-25-9-17q-42-34-108-70Zm45-93q-36 0-60-26-42-46-42-116t36-85q9-3 9-13 0-30-20-50t-49-25q-9 0-9-7-1-11-1-31t2-45 9-58 20-58 36-42 61-18 68 30 42 78q22 84 22 161t-10 137-23 90-33 50-32 23-26 5Zm-182-99 4 6q10 46 32 79t45 50 51 26q37 12 65 12 67 0 115-31t74-84q46-101 46-229 0-215-100-313-49-48-108-65-37-11-71-11-125 0-184 85T20 285q0 76 13 139t27 90l13 26q4 9 13 9t13-1 7-3 4-2Z"/><glyph unicode="Ô" glyph-name="Ocircumflex" horiz-adv-x="562" d="M405 745q0-9-8-9t-102 63q-93-63-102-63t-9 8l2 8q33 63 69 102 4 5 13 5t27-14q17 14 28 14l12-5q30-30 59-84l10-18q1-3 1-7ZM292 642q-36 0-60-26-42-46-42-116t36-85q9-3 9-13 0-30-20-50t-49-25q-9 0-9-7-1-11-1-31t2-45 9-58 20-58 36-42 61-18 68 30 42 78q22 84 22 161t-10 137-23 90-33 50-32 23-26 5Zm-182-99 4 6q10 46 32 79t45 50 51 26q37 12 65 12 67 0 115-31t74-84q46-101 46-229 0-215-100-313-49-48-108-65-37-11-71-11-125 0-184 85T20 285q0 76 13 139t27 90l13 26q4 9 13 9t13-1 7-3 4-2Z"/><glyph unicode="Õ" glyph-name="Otilde" horiz-adv-x="562" d="m269 809 101-8q20 0 29 3t10 3q6 0 6-5 0-15-19-33t-38-18-47 7-48 7-32-3-22-6-11-3-3 8 22 28 52 20Zm23-167q-36 0-60-26-42-46-42-116t36-85q9-3 9-13 0-30-20-50t-49-25q-9 0-9-7-1-11-1-31t2-45 9-58 20-58 36-42 61-18 68 30 42 78q22 84 22 161t-10 137-23 90-33 50-32 23-26 5Zm-182-99 4 6q10 46 32 79t45 50 51 26q37 12 65 12 67 0 115-31t74-84q46-101 46-229 0-215-100-313-49-48-108-65-37-11-71-11-125 0-184 85T20 285q0 76 13 139t27 90l13 26q4 9 13 9t13-1 7-3 4-2Z"/><glyph unicode="Ö" glyph-name="Odieresis" horiz-adv-x="562" d="m390 753-21-1q-19 0-26 8t-7 32 10 32 37 9 37-10 11-31q0-52-10-52l-4 3q-6 10-27 10Zm-175 0-21-1q-19 0-26 8t-7 32 10 32 37 9 37-10 11-31q0-35-4-43t-6-9l-4 3q-6 10-27 10Zm77-111q-36 0-60-26-42-46-42-116t36-85q9-3 9-13 0-30-20-50t-49-25q-9 0-9-7-1-11-1-31t2-45 9-58 20-58 36-42 61-18 68 30 42 78q22 84 22 161t-10 137-23 90-33 50-32 23-26 5Zm-182-99 4 6q10 46 32 79t45 50 51 26q37 12 65 12 67 0 115-31t74-84q46-101 46-229 0-215-100-313-49-48-108-65-37-11-71-11-125 0-184 85T20 285q0 76 13 139t27 90l13 26q4 9 13 9t13-1 7-3 4-2Z"/><glyph unicode="×" glyph-name="multiply" horiz-adv-x="464" d="M430 566q0-3-26-33T275 370q119-176 139-194t20-27q0-14-34-14-56 0-62 13-8 19-107 165L119 160q-15-20-52-20t-37 11l7 11q80 97 160 201L69 544q-5 6-5 12 0 14 39 14t52-18q38-59 86-131l103 141q8 18 47 18t39-14Z"/><glyph unicode="Ø" glyph-name="Oslash" horiz-adv-x="562" d="M110-42Q99-63 70-63T41-51q0 5 3 9l477 776q8 15 39 15t31-8q0-1-481-783Zm182 684q-36 0-60-26-42-46-42-116t36-85q9-3 9-13 0-30-20-50t-49-25q-9 0-9-7-1-11-1-31t2-45 9-58 20-58 36-42 61-18 68 30 42 78q22 84 22 161t-10 137-23 90-33 50-32 23-26 5Zm-182-99 4 6q10 46 32 79t45 50 51 26q37 12 65 12 67 0 115-31t74-84q46-101 46-229 0-215-100-313-49-48-108-65-37-11-71-11-125 0-184 85T20 285q0 76 13 139t27 90l13 26q4 9 13 9t13-1 7-3 4-2Z"/><glyph unicode="Ù" glyph-name="Ugrave" horiz-adv-x="546" d="m338 740-2-3-7-3-51 29-60 40-14 21 19 25 29 15 12-5q15-15 44-60t30-52ZM51 174l7 281q0 65-3 107-5 75-17 94l-4 6q-5 4-5 10 0 19 50 30t84 12 34-19l-1-11q-14-99-17-234t-3-178 3-70 3-32 5-17 12-23q18-24 51-24t55 15 34 37q23 47 28 81l2 15q5 71 5 168t-1 127-3 49-3 35-3 23-1 10q0 11 11 18 17 13 52 22t64 9 28-13q0-2-5-33-22-136-22-378 0-179 24-255 4-12 4-16t-8-12q-30-23-79-23t-54 25q-5 13-6 52l-1 12q0 9-4 9l-11-7q-19-32-44-53T264-7q-33-12-64-12T137-3 90 36 64 88q-13 43-13 86Z"/><glyph unicode="Ú" glyph-name="Uacute" horiz-adv-x="546" d="M273 754q-5-4-10-4-8 0-8 9l2 8q27 54 72 108 4 5 12 5t29-14 20-25-9-17q-42-34-108-70ZM51 174l7 281q0 65-3 107-5 75-17 94l-4 6q-5 4-5 10 0 19 50 30t84 12 34-19l-1-11q-14-99-17-234t-3-178 3-70 3-32 5-17 12-23q18-24 51-24t55 15 34 37q23 47 28 81l2 15q5 71 5 168t-1 127-3 49-3 35-3 23-1 10q0 11 11 18 17 13 52 22t64 9 28-13q0-2-5-33-22-136-22-378 0-179 24-255 4-12 4-16t-8-12q-30-23-79-23t-54 25q-5 13-6 52l-1 12q0 9-4 9l-11-7q-19-32-44-53T264-7q-33-12-64-12T137-3 90 36 64 88q-13 43-13 86Z"/><glyph unicode="Û" glyph-name="Ucircumflex" horiz-adv-x="546" d="M396 748q0-9-8-9t-102 63q-93-63-102-63t-9 8l2 8q33 63 69 102 4 5 13 5t27-14q17 14 28 14l12-5q30-30 59-83l10-19q1-3 1-7ZM51 174l7 281q0 65-3 107-5 75-17 94l-4 6q-5 4-5 10 0 19 50 30t84 12 34-19l-1-11q-14-99-17-234t-3-178 3-70 3-32 5-17 12-23q18-24 51-24t55 15 34 37q23 47 28 81l2 15q5 71 5 168t-1 127-3 49-3 35-3 23-1 10q0 11 11 18 17 13 52 22t64 9 28-13q0-2-5-33-22-136-22-378 0-179 24-255 4-12 4-16t-8-12q-30-23-79-23t-54 25q-5 13-6 52l-1 12q0 9-4 9l-11-7q-19-32-44-53T264-7q-33-12-64-12T137-3 90 36 64 88q-13 43-13 86Z"/><glyph unicode="Ü" glyph-name="Udieresis" horiz-adv-x="546" d="m376 767-21-1q-19 0-26 8t-7 32 10 32 37 9 37-10 11-31q0-52-10-52l-4 3q-6 10-27 10Zm-175 0-21-1q-19 0-26 8t-7 32 10 32 37 9 37-10 11-31q0-35-4-43t-6-9l-4 3q-6 10-27 10ZM51 174l7 281q0 65-3 107-5 75-17 94l-4 6q-5 4-5 10 0 19 50 30t84 12 34-19l-1-11q-14-99-17-234t-3-178 3-70 3-32 5-17 12-23q18-24 51-24t55 15 34 37q23 47 28 81l2 15q5 71 5 168t-1 127-3 49-3 35-3 23-1 10q0 11 11 18 17 13 52 22t64 9 28-13q0-2-5-33-22-136-22-378 0-179 24-255 4-12 4-16t-8-12q-30-23-79-23t-54 25q-5 13-6 52l-1 12q0 9-4 9l-11-7q-19-32-44-53T264-7q-33-12-64-12T137-3 90 36 64 88q-13 43-13 86Z"/><glyph unicode="Ý" glyph-name="Yacute" horiz-adv-x="529" d="M273 761q-5-4-10-4-8 0-8 9l2 8q27 54 72 108 4 5 12 5t29-14 20-25-9-17q-42-34-108-70Zm117-111-4 37q0 18 46 25t90 8 44-15q0-7-10-17-39-41-94-134t-92-166l-36-72q-18-38-18-83t3-90 6-76 3-36q0-25-46-40t-75-16-30 11l3 13q17 91 17 216 0 31-10 77l-3 13Q120 478 64 560q-48 73-70 86l-9 6q-10 6-10 14 0 17 52 35t78 18 36-16q90-188 140-304 3-6 8-6t13 12 23 38 40 92 25 115Z"/><glyph unicode="Þ" glyph-name="Thorn" horiz-adv-x="521" d="m37-9 3 15q19 42 19 338 0 280-23 311l-5 6q-6 5-6 12t11 13q15 9 53 18t70 9 31-14v-3q-5-40-9-105 39 3 83 3 118 0 177-64t60-152-48-154-127-65q-25 0-50 9-50 18-50 75 0 12 8 32t23 21q4 0 15-8t23-8h1q34 0 54 27t22 54l3 27q0 38-11 65t-27 41-35 22q-25 9-52 9t-45-5-19-12l-1-5q-9-135-9-257v-5q2-114 10-187 4-14 4-17 0-25-44-40T59-18h-6q-16 1-16 9Z"/><glyph unicode="ß" glyph-name="germandbls" horiz-adv-x="527" d="m160 250 5-200q0-63-16-111t-41-73q-49-51-86-58l-17-4q-15 0-15 9l5 15Q68-71 68 324q0 36-1 54-21 0-42-3h-1q-11 0-11 11l3 38q1 9 14 9h36v67q0 64 42 112t98 70 104 22q102 0 102-57 0-38-45-143t-45-139q0-49 89-92 106-50 106-136 0-43-16-75t-38-47-49-24q-38-12-70-12-65 0-108 25t-43 82q0 33 19 54 27 31 66 31 12 0 12-11 0-1-4-15t-5-37 17-39 43-17 40 8 21 22q9 18 9 34 0 29-29 50t-64 33-64 40-29 79 42 157 42 126q0 35-39 35t-73-43-34-132l-3-211Z"/><glyph unicode="à" glyph-name="agrave" horiz-adv-x="395" d="m293 522-2-3-7-4-51 29-60 40-14 21 19 25 29 15 12-5q14-14 44-60t30-52Zm71-222-2-128q0-133 29-160 4-4 4-9 0-15-64-15t-69 38q-1 9-1 37l4 160q0 7-8 7-48 0-90-27t-42-69q0-22 12-37t29-15 29 7 14 8q17-2 17-35T195 8t-65-21T72-1 36 26 18 60q-7 23-7 40 0 70 44 112t113 60q91 18 95 33 3 11 3 37 0 53-54 53-23 0-41-14t-18-37l6-24q-2-17-36-20l-11-1q-30 0-47 15t-18 40q0 16 10 35t27 32 49 21 65 10 48-2 46-9 49-29 21-44 2-68Z"/><glyph unicode="á" glyph-name="aacute" horiz-adv-x="395" d="M200 519q-5-4-10-4-8 0-8 9l2 8q27 54 72 108 4 5 12 5t29-14 20-25-9-17q-42-34-108-70Zm164-219-2-128q0-133 29-160 4-4 4-9 0-15-64-15t-69 38q-1 9-1 37l4 160q0 7-8 7-48 0-90-27t-42-69q0-22 12-37t29-15 29 7 14 8q17-2 17-35T195 8t-65-21T72-1 36 26 18 60q-7 23-7 40 0 70 44 112t113 60q91 18 95 33 3 11 3 37 0 53-54 53-23 0-41-14t-18-37l6-24q-2-17-36-20l-11-1q-30 0-47 15t-18 40q0 16 10 35t27 32 49 21 65 10 48-2 46-9 49-29 21-44 2-68Z"/><glyph unicode="â" glyph-name="acircumflex" horiz-adv-x="395" d="M335 523q0-9-8-9t-102 63q-93-63-102-63t-9 8l2 8q33 63 69 102 4 5 13 5t27-14q17 14 28 14l12-5q30-30 59-84l10-18q1-3 1-7Zm29-223-2-128q0-133 29-160 4-4 4-9 0-15-64-15t-69 38q-1 9-1 37l4 160q0 7-8 7-48 0-90-27t-42-69q0-22 12-37t29-15 29 7 14 8q17-2 17-35T195 8t-65-21T72-1 36 26 18 60q-7 23-7 40 0 70 44 112t113 60q91 18 95 33 3 11 3 37 0 53-54 53-23 0-41-14t-18-37l6-24q-2-17-36-20l-11-1q-30 0-47 15t-18 40q0 16 10 35t27 32 49 21 65 10 48-2 46-9 49-29 21-44 2-68Z"/><glyph unicode="ã" glyph-name="atilde" horiz-adv-x="395" d="m173 577 101-8q20 0 29 3t10 3q6 0 6-5 0-15-19-33t-38-18-47 7-48 7-32-3-22-6-11-3-3 8 22 28 52 20Zm191-277-2-128q0-133 29-160 4-4 4-9 0-15-64-15t-69 38q-1 9-1 37l4 160q0 7-8 7-48 0-90-27t-42-69q0-22 12-37t29-15 29 7 14 8q17-2 17-35T195 8t-65-21T72-1 36 26 18 60q-7 23-7 40 0 70 44 112t113 60q91 18 95 33 3 11 3 37 0 53-54 53-23 0-41-14t-18-37l6-24q-2-17-36-20l-11-1q-30 0-47 15t-18 40q0 16 10 35t27 32 49 21 65 10 48-2 46-9 49-29 21-44 2-68Z"/><glyph unicode="ä" glyph-name="adieresis" horiz-adv-x="395" d="m307 538-21-1q-19 0-26 8t-7 32 10 32 37 9 37-10 11-31q0-35-4-43t-6-9l-4 3q-6 10-27 10Zm-175 0-21-1q-19 0-26 8t-7 32 10 32 37 9 37-10 11-31q0-52-10-52l-4 3q-6 10-27 10Zm232-238-2-128q0-133 29-160 4-4 4-9 0-15-64-15t-69 38q-1 9-1 37l4 160q0 7-8 7-48 0-90-27t-42-69q0-22 12-37t29-15 29 7 14 8q17-2 17-35T195 8t-65-21T72-1 36 26 18 60q-7 23-7 40 0 70 44 112t113 60q91 18 95 33 3 11 3 37 0 53-54 53-23 0-41-14t-18-37l6-24q-2-17-36-20l-11-1q-30 0-47 15t-18 40q0 16 10 35t27 32 49 21 65 10 48-2 46-9 49-29 21-44 2-68Z"/><glyph unicode="å" glyph-name="aring" horiz-adv-x="395" d="M225 549q15 0 33-6 5 0 5 16 0 47-29 47-14 0-22-8t-8-20q0-29 21-29Zm-52 26q0 29 16 44t45 15 44-21 15-64-13-43q-3 0-6 2-16 14-54 14-47 0-47 53Zm191-275-2-128q0-133 29-160 4-4 4-9 0-15-64-15t-69 38q-1 9-1 37l4 160q0 7-8 7-48 0-90-27t-42-69q0-22 12-37t29-15 29 7 14 8q17-2 17-35T195 8t-65-21T72-1 36 26 18 60q-7 23-7 40 0 70 44 112t113 60q91 18 95 33 3 11 3 37 0 53-54 53-23 0-41-14t-18-37l6-24q-2-17-36-20l-11-1q-30 0-47 15t-18 40q0 16 10 35t27 32 49 21 65 10 48-2 46-9 49-29 21-44 2-68Z"/><glyph unicode="æ" glyph-name="ae" horiz-adv-x="611" d="m368 254 1-25q0-6 8-6 32 3 56 16t35 31q25 37 27 64l1 12q0 54-43 54-32 0-53-28-32-44-32-118Zm218-133q0-38-15-66t-35-42-46-22q-32-10-63-10-84 0-124 63t-40 160 49 174 149 76q90 0 123-63 12-24 12-45t-2-34-14-38-32-45-63-38-101-24q-8 0-8-7 0-9 6-26t16-30q21-28 64-28t74 28q15 15 25 37 4 8 10 8t11-11 4-17ZM364 300l-2-128q0-133 29-160 4-4 4-9 0-15-64-15t-69 38q-1 9-1 37l4 160q0 7-8 7-48 0-90-27t-42-69q0-22 12-37t29-15 29 7 14 8q17-2 17-35T195 8t-65-21T72-1 36 26 18 60q-7 23-7 40 0 70 44 112t113 60q91 18 95 33 3 11 3 37 0 53-54 53-23 0-41-14t-18-37l6-24q-2-17-36-20l-11-1q-30 0-47 15t-18 40q0 16 10 35t27 32 49 21 65 10 48-2 46-9 49-29 21-44 2-68Z"/><glyph unicode="ç" glyph-name="ccedilla" horiz-adv-x="380" d="M357 115q0-55-41-90T216-15q-14-9-14-16t9-11q30-10 30-30t-17-30-35-10-29 4-13 13l5 6q12-2 22-2t16 6 6 15-15 16-16 14q0 7 10 14t11 10l-2 2Q25-7 25 189q0 101 45 179 22 40 63 63t96 23q83 0 117-56 14-23 14-54 0-48-40-72-16-9-29-9t-22 1-23 14-14 33q1 11 17 18 15 9 15 32 0 39-48 39-12 0-28-10t-28-27-20-52-10-68 2-49 11-45 32-47 59-18q42 0 74 35 13 14 21 34 4 8 10 8 9 0 13-16t5-30Z"/><glyph unicode="è" glyph-name="egrave" horiz-adv-x="373" d="m254 522-2-3-7-4-51 29-60 40-14 21 19 25 29 15 12-5q14-14 44-60t30-52ZM125 254l1-25q0-6 8-6 32 3 56 16t36 31q24 37 26 64l1 12q0 54-43 54-32 0-52-28-33-44-33-118Zm218-133q0-38-15-66t-35-42-46-22q-33-10-63-10-84 0-124 63T20 204t49 174 149 76q90 0 122-63 13-24 13-45t-2-34-14-38-32-45-63-38-101-24q-8 0-8-7 0-9 6-26t15-30q22-28 65-28t73 28q16 15 26 37 4 8 10 8t11-11 4-17Z"/><glyph unicode="é" glyph-name="eacute" horiz-adv-x="368" d="M169 519q-5-4-10-4-8 0-8 9l2 8q27 54 72 108 4 5 12 5t29-14 20-25-9-17q-42-34-108-70Zm-44-265 1-25q0-6 8-6 32 3 56 16t36 31q24 37 26 64l1 12q0 54-43 54-32 0-52-28-33-44-33-118Zm218-133q0-38-15-66t-35-42-46-22q-33-10-63-10-84 0-124 63T20 204t49 174 149 76q90 0 122-63 13-24 13-45t-2-34-14-38-32-45-63-38-101-24q-8 0-8-7 0-9 6-26t15-30q22-28 65-28t73 28q16 15 26 37 4 8 10 8t11-11 4-17Z"/><glyph unicode="ê" glyph-name="ecircumflex" horiz-adv-x="368" d="M314 512q0-9-8-9t-102 63q-93-63-102-63t-9 8l2 8q33 63 69 102 4 5 13 5t27-14q18 14 28 14l12-5q30-30 59-83l10-19q1-3 1-7ZM125 254l1-25q0-6 8-6 32 3 56 16t36 31q24 37 26 64l1 12q0 54-43 54-32 0-52-28-33-44-33-118Zm218-133q0-38-15-66t-35-42-46-22q-33-10-63-10-84 0-124 63T20 204t49 174 149 76q90 0 122-63 13-24 13-45t-2-34-14-38-32-45-63-38-101-24q-8 0-8-7 0-9 6-26t15-30q22-28 65-28t73 28q16 15 26 37 4 8 10 8t11-11 4-17Z"/><glyph unicode="ë" glyph-name="edieresis" horiz-adv-x="368" d="m284 538-21-1q-19 0-26 8t-7 32 10 32 37 9 37-10 11-31q0-52-10-52l-4 3q-6 10-27 10Zm-175 0-21-1q-19 0-26 8t-7 32 10 32 37 9 37-10 11-31q0-35-4-43t-6-9l-4 3q-6 10-27 10Zm16-284 1-25q0-6 8-6 32 3 56 16t36 31q24 37 26 64l1 12q0 54-43 54-32 0-52-28-33-44-33-118Zm218-133q0-38-15-66t-35-42-46-22q-33-10-63-10-84 0-124 63T20 204t49 174 149 76q90 0 122-63 13-24 13-45t-2-34-14-38-32-45-63-38-101-24q-8 0-8-7 0-9 6-26t15-30q22-28 65-28t73 28q16 15 26 37 4 8 10 8t11-11 4-17Z"/><glyph unicode="ì" glyph-name="igrave" horiz-adv-x="210" d="m172 522-2-3-7-4-51 29-60 40-14 21 19 25 29 15 12-5q15-14 44-60t30-52ZM53 30l11 233q0 83-19 113-6 10-14 15-6 2-6 8 0 18 51 35t74 17 25-12q0-20-5-113t-6-197T176 1q3-5 3-10 0-13-38-13T63-2Q53 3 53 30Z"/><glyph unicode="í" glyph-name="iacute" horiz-adv-x="210" d="M87 519q-5-4-10-4-8 0-8 9l2 8q27 54 72 108 4 5 12 5t29-14 20-25-9-17q-42-34-108-70ZM53 30l11 233q0 83-19 113-6 10-14 15-6 2-6 8 0 18 51 35t74 17 25-12q0-20-5-113t-6-197T176 1q3-5 3-10 0-13-38-13T63-2Q53 3 53 30Z"/><glyph unicode="î" glyph-name="icircumflex" horiz-adv-x="210" d="M216 523q0-9-8-9t-102 63Q13 514 4 514t-9 8l2 8q33 63 69 102 4 5 13 5t27-14q17 14 28 14l12-5q30-30 59-84l10-18q1-3 1-7ZM53 30l11 233q0 83-19 113-6 10-14 15-6 2-6 8 0 18 51 35t74 17 25-12q0-20-5-113t-6-197T176 1q3-5 3-10 0-13-38-13T63-2Q53 3 53 30Z"/><glyph unicode="ï" glyph-name="idieresis" horiz-adv-x="210" d="m199 538-21-1q-19 0-26 8t-7 32 10 32 37 9 37-10 11-31q0-35-4-43t-6-9l-4 3q-6 10-27 10Zm-175 0-21-1q-19 0-26 8t-7 32 10 32 37 9 37-10 11-31q0-52-10-52l-4 3q-6 10-27 10ZM53 30l11 233q0 83-19 113-6 10-14 15-6 2-6 8 0 18 51 35t74 17 25-12q0-20-5-113t-6-197T176 1q3-5 3-10 0-13-38-13T63-2Q53 3 53 30Z"/><glyph unicode="ð" glyph-name="eth" horiz-adv-x="412" d="m386 487-8-293q0-150 15-180 4-7 4-13 0-15-43-15-82 0-82 39-2 16-2 49t6 125 7 141-49 50-76-58-26-116q0-123 62-123 9 0 17 3t11 4q8 0 12-10t5-20q0-34-27-57t-66-24q-60 0-90 52T25 172q0 99 47 184 24 42 65 67t93 26q18 0 32-4t16-5l6 5q3 54 3 64t-2 43l-74-47q-1-1-4-1-13 0-13 20t14 30q30 19 69 44-21 91-92 121-4 3-4 7 0 9 17 9 120-4 160-85l76 47q4 3 7 3 14 0 14-23 0-19-18-29l-64-39q13-47 13-122Z"/><glyph unicode="ñ" glyph-name="ntilde" horiz-adv-x="399" d="m186 562 101-8q20 0 29 3t10 3q6 0 6-5 0-15-19-33t-38-18-47 7-48 7-32-3-22-6-11-3-3 8 22 28 52 20ZM30-7q18 108 18 259t-9 196q0 13 30 13 46 0 61-35 1-3 5-3t6 2q31 32 96 32t103-33 38-96q0-38-6-108t-7-104q0-81 27-117 4-5 4-10 0-13-28-13-124 0-124 110 0 42 19 117t19 114q0 80-66 80-32 0-48-19t-19-43-2-93q0-104 7-181l2-22q0-28-36-43T57-20 30-7Z"/><glyph unicode="ò" glyph-name="ograve" horiz-adv-x="420" d="m285 522-2-3-7-4-51 29-60 40-14 21 19 25 29 15 12-5q15-14 44-60t30-52ZM128 377q-26-1-37-1t-12 5 6 12q64 59 216 59 52 0 82-9l10-3q12-5 12-11 0-5-7-8-27-8-52-25t-25-25l6-7q32-18 49-57t20-69l2-31q0-99-55-163T193-20q-48 0-83 17T59 35 32 84q-12 37-12 76t13 80 31 59 40 31q28 15 45 15t17-7l-6-10q-22-26-31-68t-10-74 8-65 18-47 23-24q19-12 40-12t41 16 29 44q18 50 18 103 0 84-42 130t-126 46Z"/><glyph unicode="ó" glyph-name="oacute" horiz-adv-x="420" d="M200 519q-5-4-10-4-8 0-8 9l2 8q27 54 72 108 4 5 12 5t29-14 20-25-9-17q-42-34-108-70Zm-72-142q-26-1-37-1t-12 5 6 12q64 59 216 59 52 0 82-9l10-3q12-5 12-11 0-5-7-8-27-8-52-25t-25-25l6-7q32-18 49-57t20-69l2-31q0-99-55-163T193-20q-48 0-83 17T59 35 32 84q-12 37-12 76t13 80 31 59 40 31q28 15 45 15t17-7l-6-10q-22-26-31-68t-10-74 8-65 18-47 23-24q19-12 40-12t41 16 29 44q18 50 18 103 0 84-42 130t-126 46Z"/><glyph unicode="ô" glyph-name="ocircumflex" horiz-adv-x="420" d="M346 523q0-9-8-9t-102 63q-93-63-102-63t-9 8l2 8q33 63 69 102 4 5 13 5t27-14q18 14 28 14l12-5q30-30 59-84l10-18q1-3 1-7ZM128 377q-26-1-37-1t-12 5 6 12q64 59 216 59 52 0 82-9l10-3q12-5 12-11 0-5-7-8-27-8-52-25t-25-25l6-7q32-18 49-57t20-69l2-31q0-99-55-163T193-20q-48 0-83 17T59 35 32 84q-12 37-12 76t13 80 31 59 40 31q28 15 45 15t17-7l-6-10q-22-26-31-68t-10-74 8-65 18-47 23-24q19-12 40-12t41 16 29 44q18 50 18 103 0 84-42 130t-126 46Z"/><glyph unicode="õ" glyph-name="otilde" horiz-adv-x="420" d="m192 569 101-8q20 0 29 3t10 3q6 0 6-5 0-15-19-33t-38-18-47 7-48 7-32-3-22-6-11-3-3 8 22 28 52 20Zm-64-192q-26-1-37-1t-12 5 6 12q64 59 216 59 52 0 82-9l10-3q12-5 12-11 0-5-7-8-27-8-52-25t-25-25l6-7q32-18 49-57t20-69l2-31q0-99-55-163T193-20q-48 0-83 17T59 35 32 84q-12 37-12 76t13 80 31 59 40 31q28 15 45 15t17-7l-6-10q-22-26-31-68t-10-74 8-65 18-47 23-24q19-12 40-12t41 16 29 44q18 50 18 103 0 84-42 130t-126 46Z"/><glyph unicode="ö" glyph-name="odieresis" horiz-adv-x="420" d="m315 538-21-1q-19 0-26 8t-7 32 10 32 37 9 37-10 11-31q0-35-4-43t-6-9l-4 3q-6 10-27 10Zm-175 0-21-1q-19 0-26 8t-7 32 10 32 37 9 37-10 11-31q0-52-10-52l-4 3q-6 10-27 10Zm-12-161q-26-1-37-1t-12 5 6 12q64 59 216 59 52 0 82-9l10-3q12-5 12-11 0-5-7-8-27-8-52-25t-25-25l6-7q32-18 49-57t20-69l2-31q0-99-55-163T193-20q-48 0-83 17T59 35 32 84q-12 37-12 76t13 80 31 59 40 31q28 15 45 15t17-7l-6-10q-22-26-31-68t-10-74 8-65 18-47 23-24q19-12 40-12t41 16 29 44q18 50 18 103 0 84-42 130t-126 46Z"/><glyph unicode="÷" glyph-name="divide" horiz-adv-x="499" d="m261 472-24-2q-24 0-34 11t-10 38 13 38 44 12 45-11 15-56-13-46l-5 3q-6 13-31 13Zm-3-333-24-1q-24 0-32 10t-9 39 14 39 45 11 44-12 14-43q0-59-13-59l-5 3q-6 13-34 13ZM73 384l380 3q7 0 11-3t4-7v-3q0-54-40-54H45q-15 0-15 20 0 44 43 44Z"/><glyph unicode="ø" glyph-name="oslash" horiz-adv-x="425" d="M277 305 143 87q23-49 62-49 29 0 49 16t30 44q17 50 17 108t-24 99Zm-144 72q-26-1-37-1t-12 5 6 12q64 59 216 59l50 80q8 15 38 15t30-8q-12-18-58-92l32-7q12-5 12-11 0-3-7-8-27-8-52-25t-25-25l6-7q32-18 50-57t20-69l1-31q0-99-55-163T198-20Q136-20 94 8L63-42Q52-63 23-63T-6-51q0 5 3 9l57 91q-29 45-29 98t13 93 31 59 39 31q29 15 46 15t17-7l-6-10q-22-26-31-68t-10-64 1-33l115 184q-43 30-107 30Z"/><glyph unicode="ù" glyph-name="ugrave" horiz-adv-x="402" d="m271 522-2-3-7-4-51 29-60 40-14 21 19 25 29 15 12-5q15-14 44-60t30-52Zm113-77q-18-108-18-275 0-123 10-162l4-13q0-13-22-13-77 0-88 43-1 5-4 5t-7-4q-31-41-96-41-36 0-75 18-24 11-39 38t-15 68l15 219q0 69-14 98-5 11-5 14 0 6 5 8 16 5 41 5 97 0 97-80 0-25-20-114t-21-126 16-58 46-20 47 21 20 42l3 21q4 35 4 123t-5 111-6 30q0 25 40 39t72 15q15 0 15-12Z"/><glyph unicode="ú" glyph-name="uacute" horiz-adv-x="402" d="M193 519q-5-4-10-4-8 0-8 9l2 8q27 54 72 108 4 5 12 5t29-14 20-25-9-17q-42-34-108-70Zm191-74q-18-108-18-275 0-123 10-162l4-13q0-13-22-13-77 0-88 43-1 5-4 5t-7-4q-31-41-96-41-36 0-75 18-24 11-39 38t-15 68l15 219q0 69-14 98-5 11-5 14 0 6 5 8 16 5 41 5 97 0 97-80 0-25-20-114t-21-126 16-58 46-20 47 21 20 42l3 21q4 35 4 123t-5 111-6 30q0 25 40 39t72 15q15 0 15-12Z"/><glyph unicode="û" glyph-name="ucircumflex" horiz-adv-x="402" d="M332 523q0-9-8-9t-102 63q-93-63-102-63t-9 8l2 8q33 63 69 102 4 5 13 5t27-14q18 14 28 14l12-5q30-30 59-84l10-18q1-3 1-7Zm52-78q-18-108-18-275 0-123 10-162l4-13q0-13-22-13-77 0-88 43-1 5-4 5t-7-4q-31-41-96-41-36 0-75 18-24 11-39 38t-15 68l15 219q0 69-14 98-5 11-5 14 0 6 5 8 16 5 41 5 97 0 97-80 0-25-20-114t-21-126 16-58 46-20 47 21 20 42l3 21q4 35 4 123t-5 111-6 30q0 25 40 39t72 15q15 0 15-12Z"/><glyph unicode="ü" glyph-name="udieresis" horiz-adv-x="402" d="m299 538-21-1q-19 0-26 8t-7 32 10 32 37 9 37-10 11-31q0-35-4-43t-6-9l-4 3q-6 10-27 10Zm-175 0-21-1q-19 0-26 8t-7 32 10 32 37 9 37-10 11-31q0-52-10-52l-4 3q-6 10-27 10Zm260-93q-18-108-18-275 0-123 10-162l4-13q0-13-22-13-77 0-88 43-1 5-4 5t-7-4q-31-41-96-41-36 0-75 18-24 11-39 38t-15 68l15 219q0 69-14 98-5 11-5 14 0 6 5 8 16 5 41 5 97 0 97-80 0-25-20-114t-21-126 16-58 46-20 47 21 20 42l3 21q4 35 4 123t-5 111-6 30q0 25 40 39t72 15q15 0 15-12Z"/><glyph unicode="ý" glyph-name="yacute" horiz-adv-x="389" d="M213 519q-5-4-10-4-8 0-8 9l2 8q27 54 72 108 4 5 12 5t29-14 20-25-9-17q-42-34-108-70Zm-6-796q0-12-12-12h-1q-33 0-74 23t-42 53 38 104T154-9q0 27-26 97-33 91-52 148T34 336 1 388l-10 7q-11 6-11 13 0 14 43 28t77 15q15 0 25-24 18-47 39-130 51-170 64-170 9 0 36 70t28 113q0 75-44 88-10 2-10 10 0 18 47 34t85 17q33 0 33-43 0-33-14-77t-26-69-59-118-79-163q-34-84-34-171 0-46 8-69t8-26Z"/><glyph unicode="þ" glyph-name="thorn" horiz-adv-x="425" d="M161 686q4-26 4-117t-1-136q35 22 81 22t81-24 52-63q26-67 26-142 0-74-28-148-14-40-43-65t-68-26q-77 0-77 89 0 24 10 24 2 0 11-4t19-5q71 0 71 150t-76 151q-21 0-35-9t-19-19l-4-10q-14-90-14-347 0-91 4-154t5-73-6-18q-20-26-54-46t-60-21q-10 0-10 13 17 110 30 536 4 134 4 157l-4 153q-2 28-11 48t-19 26l-8 5q-7 4-7 9 0 14 43 34t85 21q16 0 18-11Z"/><glyph unicode="ÿ" glyph-name="ydieresis" horiz-adv-x="389" d="m289 538-21-1q-19 0-26 8t-7 32 10 32 37 9 37-10 11-31q0-35-4-43t-6-9l-4 3q-6 10-27 10Zm-175 0-21-1q-19 0-26 8t-7 32 10 32 37 9 37-10 11-31q0-52-10-52l-4 3q-6 10-27 10Zm93-815q0-12-12-12h-1q-33 0-74 23t-42 53 38 104T154-9q0 27-26 97-33 91-52 148T34 336 1 388l-10 7q-11 6-11 13 0 14 43 28t77 15q15 0 25-24 18-47 39-130 51-170 64-170 9 0 36 70t28 113q0 75-44 88-10 2-10 10 0 18 47 34t85 17q33 0 33-43 0-33-14-77t-26-69-59-118-79-163q-34-84-34-171 0-46 8-69t8-26Z"/><glyph unicode="–" glyph-name="endash" horiz-adv-x="360" d="m63 280 256 3q7 0 7-11 0-50-18-50H50q-6 0-6 19t5 30q3 9 14 9Z"/><glyph unicode="—" glyph-name="emdash" horiz-adv-x="642" d="m83 280 512 3q13 0 13-11 0-50-36-50H57q-13 0-13 20 0 38 39 38Z"/><glyph unicode="‘" glyph-name="quoteleft" horiz-adv-x="164" d="M76 529q-39 36-39 126 0 29 13 42t44 13 40-10 10-32q0-30-6-40-5-15-34-15-18 0-18-18 0-41 25-71 0-10-7-10-13 2-28 15Z"/><glyph unicode="’" glyph-name="quoteright" horiz-adv-x="156" d="M127 655q0-109-53-135-7-4-14-6-7 0-7 10 25 30 25 71 0 18-18 18-26 0-32 11-8 16-8 40t10 35 40 11 43-13 14-42Z"/><glyph unicode="‚" glyph-name="quotesinglbase" horiz-adv-x="217" d="M167 42q0-55-25-95T85-99q-7 0-7 3l2 6q23 23 28 59l1 12q0 17-14 19h-5Q67 0 59 10t-9 36 11 38 45 13 47-12 14-43Z"/><glyph unicode="“" glyph-name="quotedblleft" horiz-adv-x="296" d="M76 529q-39 36-39 126 0 29 13 42t44 13 40-10 10-32q0-30-6-40-5-15-34-15-18 0-18-18 0-41 25-71 0-10-7-10-13 2-28 15Zm132 0q-39 36-39 126 0 29 13 42t44 13 40-10 10-32q0-30-6-40-5-15-34-15-18 0-18-18 0-41 25-71 0-10-7-10-13 2-28 15Z"/><glyph unicode="”" glyph-name="quotedblright" horiz-adv-x="288" d="M259 655q0-109-53-135-7-4-14-6-7 0-7 10 25 30 25 71 0 18-18 18-26 0-32 11-8 16-8 40t10 35 40 11 43-13 14-42Zm-132 0q0-109-53-135-7-4-14-6-7 0-7 10 25 30 25 71 0 18-18 18-26 0-32 11-8 16-8 40t10 35 40 11 43-13 14-42Z"/><glyph unicode="„" glyph-name="quotedblbase" horiz-adv-x="357" d="M307 42q0-55-25-95t-57-46q-7 0-7 3l2 6q23 23 28 59l1 12q0 17-14 19h-5q-23 0-31 10t-9 36 11 38 45 13 47-12 14-43Zm-140 0q0-55-25-95T85-99q-7 0-7 3l2 6q23 23 28 59l1 12q0 17-14 19h-5Q67 0 59 10t-9 36 11 38 45 13 47-12 14-43Z"/><glyph unicode="•" glyph-name="bullet" horiz-adv-x="255" d="m98 154-23 19-23 54 24 56 56 22 52-19 21-56-22-56-54-20Z"/><glyph unicode="‹" glyph-name="guilsinglleft" horiz-adv-x="462" d="M382-19q-7 0-14 9-14 15-230 150l-72 44q-16 13-16 24 0 17 19 34 165 127 315 218 7 5 13 5 14 0 14-27t-19-43q-162-99-236-160-9-6-9-12t7-11Q341 100 388 61q16-9 16-29 0-51-22-51Z"/><glyph unicode="›" glyph-name="guilsinglright" horiz-adv-x="463" d="M101-11q-7-8-14-8-12 0-17 15t-5 28q0 25 19 40 48 37 183 119l48 29q7 4 7 8 0 10-9 15-66 54-193 133l-43 27q-19 15-19 42t14 28l13-5q129-77 269-184l46-34q19-13 19-29t-16-29Q119 9 101-11Z"/></font>
</defs>
</svg>
